<svg width="2184" height="1334" viewBox="0 0 2184 1334" fill="none" xmlns="http://www.w3.org/2000/svg">
<path d="M1 1005C37.3667 987.667 73.7333 987.667 110.1 1005C146.467 1022.33 182.833 1022.33 219.2 1005C255.567 987.667 291.933 987.667 328.3 1005C364.667 1022.33 401.033 1022.33 437.4 1005C473.767 987.667 510.133 987.667 546.5 1005C582.867 1022.33 619.233 1022.33 655.6 1005C691.967 987.667 728.333 987.667 764.7 1005C801.067 1022.33 837.433 1022.33 873.8 1005C910.167 987.667 946.533 987.667 982.9 1005C1019.27 1022.33 1055.63 1022.33 1092 1005C1128.37 987.667 1164.73 987.667 1201.1 1005C1237.47 1022.33 1273.83 1022.33 1310.2 1005C1346.57 987.667 1382.93 987.667 1419.3 1005C1455.67 1022.33 1492.03 1022.33 1528.4 1005C1564.77 987.667 1601.13 987.667 1637.5 1005C1673.87 1022.33 1710.23 1022.33 1746.6 1005C1782.97 987.667 1819.33 987.667 1855.7 1005C1892.07 1022.33 1928.43 1022.33 1964.8 1005C2001.17 987.667 2037.53 987.667 2073.9 1005C2110.27 1022.33 2146.63 1022.33 2183 1005" stroke="#F5F9FF" stroke-width="2"/>
<path d="M1 1020C37.3667 1002.67 73.7333 1002.67 110.1 1020C146.467 1037.33 182.833 1037.33 219.2 1020C255.567 1002.67 291.933 1002.67 328.3 1020C364.667 1037.33 401.033 1037.33 437.4 1020C473.767 1002.67 510.133 1002.67 546.5 1020C582.867 1037.33 619.233 1037.33 655.6 1020C691.967 1002.67 728.333 1002.67 764.7 1020C801.067 1037.33 837.433 1037.33 873.8 1020C910.167 1002.67 946.533 1002.67 982.9 1020C1019.27 1037.33 1055.63 1037.33 1092 1020C1128.37 1002.67 1164.73 1002.67 1201.1 1020C1237.47 1037.33 1273.83 1037.33 1310.2 1020C1346.57 1002.67 1382.93 1002.67 1419.3 1020C1455.67 1037.33 1492.03 1037.33 1528.4 1020C1564.77 1002.67 1601.13 1002.67 1637.5 1020C1673.87 1037.33 1710.23 1037.33 1746.6 1020C1782.97 1002.67 1819.33 1002.67 1855.7 1020C1892.07 1037.33 1928.43 1037.33 1964.8 1020C2001.17 1002.67 2037.53 1002.67 2073.9 1020C2110.27 1037.33 2146.63 1037.33 2183 1020" stroke="#F5F9FF" stroke-width="2"/>
<path d="M1 1035C37.3667 1017.67 73.7333 1017.67 110.1 1035C146.467 1052.33 182.833 1052.33 219.2 1035C255.567 1017.67 291.933 1017.67 328.3 1035C364.667 1052.33 401.033 1052.33 437.4 1035C473.767 1017.67 510.133 1017.67 546.5 1035C582.867 1052.33 619.233 1052.33 655.6 1035C691.967 1017.67 728.333 1017.67 764.7 1035C801.067 1052.33 837.433 1052.33 873.8 1035C910.167 1017.67 946.533 1017.67 982.9 1035C1019.27 1052.33 1055.63 1052.33 1092 1035C1128.37 1017.67 1164.73 1017.67 1201.1 1035C1237.47 1052.33 1273.83 1052.33 1310.2 1035C1346.57 1017.67 1382.93 1017.67 1419.3 1035C1455.67 1052.33 1492.03 1052.33 1528.4 1035C1564.77 1017.67 1601.13 1017.67 1637.5 1035C1673.87 1052.33 1710.23 1052.33 1746.6 1035C1782.97 1017.67 1819.33 1017.67 1855.7 1035C1892.07 1052.33 1928.43 1052.33 1964.8 1035C2001.17 1017.67 2037.53 1017.67 2073.9 1035C2110.27 1052.33 2146.63 1052.33 2183 1035" stroke="#F5F9FF" stroke-width="2"/>
<path d="M1 1050C37.3667 1032.67 73.7333 1032.67 110.1 1050C146.467 1067.33 182.833 1067.33 219.2 1050C255.567 1032.67 291.933 1032.67 328.3 1050C364.667 1067.33 401.033 1067.33 437.4 1050C473.767 1032.67 510.133 1032.67 546.5 1050C582.867 1067.33 619.233 1067.33 655.6 1050C691.967 1032.67 728.333 1032.67 764.7 1050C801.067 1067.33 837.433 1067.33 873.8 1050C910.167 1032.67 946.533 1032.67 982.9 1050C1019.27 1067.33 1055.63 1067.33 1092 1050C1128.37 1032.67 1164.73 1032.67 1201.1 1050C1237.47 1067.33 1273.83 1067.33 1310.2 1050C1346.57 1032.67 1382.93 1032.67 1419.3 1050C1455.67 1067.33 1492.03 1067.33 1528.4 1050C1564.77 1032.67 1601.13 1032.67 1637.5 1050C1673.87 1067.33 1710.23 1067.33 1746.6 1050C1782.97 1032.67 1819.33 1032.67 1855.7 1050C1892.07 1067.33 1928.43 1067.33 1964.8 1050C2001.17 1032.67 2037.53 1032.67 2073.9 1050C2110.27 1067.33 2146.63 1067.33 2183 1050" stroke="#F5F9FF" stroke-width="2"/>
<path d="M1 1065C37.3667 1047.67 73.7333 1047.67 110.1 1065C146.467 1082.33 182.833 1082.33 219.2 1065C255.567 1047.67 291.933 1047.67 328.3 1065C364.667 1082.33 401.033 1082.33 437.4 1065C473.767 1047.67 510.133 1047.67 546.5 1065C582.867 1082.33 619.233 1082.33 655.6 1065C691.967 1047.67 728.333 1047.67 764.7 1065C801.067 1082.33 837.433 1082.33 873.8 1065C910.167 1047.67 946.533 1047.67 982.9 1065C1019.27 1082.33 1055.63 1082.33 1092 1065C1128.37 1047.67 1164.73 1047.67 1201.1 1065C1237.47 1082.33 1273.83 1082.33 1310.2 1065C1346.57 1047.67 1382.93 1047.67 1419.3 1065C1455.67 1082.33 1492.03 1082.33 1528.4 1065C1564.77 1047.67 1601.13 1047.67 1637.5 1065C1673.87 1082.33 1710.23 1082.33 1746.6 1065C1782.97 1047.67 1819.33 1047.67 1855.7 1065C1892.07 1082.33 1928.43 1082.33 1964.8 1065C2001.17 1047.67 2037.53 1047.67 2073.9 1065C2110.27 1082.33 2146.63 1082.33 2183 1065" stroke="#F5F9FF" stroke-width="2"/>
<path d="M1 1080C37.3667 1062.67 73.7333 1062.67 110.1 1080C146.467 1097.33 182.833 1097.33 219.2 1080C255.567 1062.67 291.933 1062.67 328.3 1080C364.667 1097.33 401.033 1097.33 437.4 1080C473.767 1062.67 510.133 1062.67 546.5 1080C582.867 1097.33 619.233 1097.33 655.6 1080C691.967 1062.67 728.333 1062.67 764.7 1080C801.067 1097.33 837.433 1097.33 873.8 1080C910.167 1062.67 946.533 1062.67 982.9 1080C1019.27 1097.33 1055.63 1097.33 1092 1080C1128.37 1062.67 1164.73 1062.67 1201.1 1080C1237.47 1097.33 1273.83 1097.33 1310.2 1080C1346.57 1062.67 1382.93 1062.67 1419.3 1080C1455.67 1097.33 1492.03 1097.33 1528.4 1080C1564.77 1062.67 1601.13 1062.67 1637.5 1080C1673.87 1097.33 1710.23 1097.33 1746.6 1080C1782.97 1062.67 1819.33 1062.67 1855.7 1080C1892.07 1097.33 1928.43 1097.33 1964.8 1080C2001.17 1062.67 2037.53 1062.67 2073.9 1080C2110.27 1097.33 2146.63 1097.33 2183 1080" stroke="#F5F9FF" stroke-width="2"/>
<path d="M1 1095C37.3667 1077.67 73.7333 1077.67 110.1 1095C146.467 1112.33 182.833 1112.33 219.2 1095C255.567 1077.67 291.933 1077.67 328.3 1095C364.667 1112.33 401.033 1112.33 437.4 1095C473.767 1077.67 510.133 1077.67 546.5 1095C582.867 1112.33 619.233 1112.33 655.6 1095C691.967 1077.67 728.333 1077.67 764.7 1095C801.067 1112.33 837.433 1112.33 873.8 1095C910.167 1077.67 946.533 1077.67 982.9 1095C1019.27 1112.33 1055.63 1112.33 1092 1095C1128.37 1077.67 1164.73 1077.67 1201.1 1095C1237.47 1112.33 1273.83 1112.33 1310.2 1095C1346.57 1077.67 1382.93 1077.67 1419.3 1095C1455.67 1112.33 1492.03 1112.33 1528.4 1095C1564.77 1077.67 1601.13 1077.67 1637.5 1095C1673.87 1112.33 1710.23 1112.33 1746.6 1095C1782.97 1077.67 1819.33 1077.67 1855.7 1095C1892.07 1112.33 1928.43 1112.33 1964.8 1095C2001.17 1077.67 2037.53 1077.67 2073.9 1095C2110.27 1112.33 2146.63 1112.33 2183 1095" stroke="#F5F9FF" stroke-width="2"/>
<path d="M1 1110C37.3667 1092.67 73.7333 1092.67 110.1 1110C146.467 1127.33 182.833 1127.33 219.2 1110C255.567 1092.67 291.933 1092.67 328.3 1110C364.667 1127.33 401.033 1127.33 437.4 1110C473.767 1092.67 510.133 1092.67 546.5 1110C582.867 1127.33 619.233 1127.33 655.6 1110C691.967 1092.67 728.333 1092.67 764.7 1110C801.067 1127.33 837.433 1127.33 873.8 1110C910.167 1092.67 946.533 1092.67 982.9 1110C1019.27 1127.33 1055.63 1127.33 1092 1110C1128.37 1092.67 1164.73 1092.67 1201.1 1110C1237.47 1127.33 1273.83 1127.33 1310.2 1110C1346.57 1092.67 1382.93 1092.67 1419.3 1110C1455.67 1127.33 1492.03 1127.33 1528.4 1110C1564.77 1092.67 1601.13 1092.67 1637.5 1110C1673.87 1127.33 1710.23 1127.33 1746.6 1110C1782.97 1092.67 1819.33 1092.67 1855.7 1110C1892.07 1127.33 1928.43 1127.33 1964.8 1110C2001.17 1092.67 2037.53 1092.67 2073.9 1110C2110.27 1127.33 2146.63 1127.33 2183 1110" stroke="#F5F9FF" stroke-width="2"/>
<path d="M1 1125C37.3667 1107.67 73.7333 1107.67 110.1 1125C146.467 1142.33 182.833 1142.33 219.2 1125C255.567 1107.67 291.933 1107.67 328.3 1125C364.667 1142.33 401.033 1142.33 437.4 1125C473.767 1107.67 510.133 1107.67 546.5 1125C582.867 1142.33 619.233 1142.33 655.6 1125C691.967 1107.67 728.333 1107.67 764.7 1125C801.067 1142.33 837.433 1142.33 873.8 1125C910.167 1107.67 946.533 1107.67 982.9 1125C1019.27 1142.33 1055.63 1142.33 1092 1125C1128.37 1107.67 1164.73 1107.67 1201.1 1125C1237.47 1142.33 1273.83 1142.33 1310.2 1125C1346.57 1107.67 1382.93 1107.67 1419.3 1125C1455.67 1142.33 1492.03 1142.33 1528.4 1125C1564.77 1107.67 1601.13 1107.67 1637.5 1125C1673.87 1142.33 1710.23 1142.33 1746.6 1125C1782.97 1107.67 1819.33 1107.67 1855.7 1125C1892.07 1142.33 1928.43 1142.33 1964.8 1125C2001.17 1107.67 2037.53 1107.67 2073.9 1125C2110.27 1142.33 2146.63 1142.33 2183 1125" stroke="#F5F9FF" stroke-width="2"/>
<path d="M1 1140C37.3667 1122.67 73.7333 1122.67 110.1 1140C146.467 1157.33 182.833 1157.33 219.2 1140C255.567 1122.67 291.933 1122.67 328.3 1140C364.667 1157.33 401.033 1157.33 437.4 1140C473.767 1122.67 510.133 1122.67 546.5 1140C582.867 1157.33 619.233 1157.33 655.6 1140C691.967 1122.67 728.333 1122.67 764.7 1140C801.067 1157.33 837.433 1157.33 873.8 1140C910.167 1122.67 946.533 1122.67 982.9 1140C1019.27 1157.33 1055.63 1157.33 1092 1140C1128.37 1122.67 1164.73 1122.67 1201.1 1140C1237.47 1157.33 1273.83 1157.33 1310.2 1140C1346.57 1122.67 1382.93 1122.67 1419.3 1140C1455.67 1157.33 1492.03 1157.33 1528.4 1140C1564.77 1122.67 1601.13 1122.67 1637.5 1140C1673.87 1157.33 1710.23 1157.33 1746.6 1140C1782.97 1122.67 1819.33 1122.67 1855.7 1140C1892.07 1157.33 1928.43 1157.33 1964.8 1140C2001.17 1122.67 2037.53 1122.67 2073.9 1140C2110.27 1157.33 2146.63 1157.33 2183 1140" stroke="#F5F9FF" stroke-width="2"/>
<path d="M1 1155C37.3667 1137.67 73.7333 1137.67 110.1 1155C146.467 1172.33 182.833 1172.33 219.2 1155C255.567 1137.67 291.933 1137.67 328.3 1155C364.667 1172.33 401.033 1172.33 437.4 1155C473.767 1137.67 510.133 1137.67 546.5 1155C582.867 1172.33 619.233 1172.33 655.6 1155C691.967 1137.67 728.333 1137.67 764.7 1155C801.067 1172.33 837.433 1172.33 873.8 1155C910.167 1137.67 946.533 1137.67 982.9 1155C1019.27 1172.33 1055.63 1172.33 1092 1155C1128.37 1137.67 1164.73 1137.67 1201.1 1155C1237.47 1172.33 1273.83 1172.33 1310.2 1155C1346.57 1137.67 1382.93 1137.67 1419.3 1155C1455.67 1172.33 1492.03 1172.33 1528.4 1155C1564.77 1137.67 1601.13 1137.67 1637.5 1155C1673.87 1172.33 1710.23 1172.33 1746.6 1155C1782.97 1137.67 1819.33 1137.67 1855.7 1155C1892.07 1172.33 1928.43 1172.33 1964.8 1155C2001.17 1137.67 2037.53 1137.67 2073.9 1155C2110.27 1172.33 2146.63 1172.33 2183 1155" stroke="#F5F9FF" stroke-width="2"/>
<path d="M1 1170C37.3667 1152.67 73.7333 1152.67 110.1 1170C146.467 1187.33 182.833 1187.33 219.2 1170C255.567 1152.67 291.933 1152.67 328.3 1170C364.667 1187.33 401.033 1187.33 437.4 1170C473.767 1152.67 510.133 1152.67 546.5 1170C582.867 1187.33 619.233 1187.33 655.6 1170C691.967 1152.67 728.333 1152.67 764.7 1170C801.067 1187.33 837.433 1187.33 873.8 1170C910.167 1152.67 946.533 1152.67 982.9 1170C1019.27 1187.33 1055.63 1187.33 1092 1170C1128.37 1152.67 1164.73 1152.67 1201.1 1170C1237.47 1187.33 1273.83 1187.33 1310.2 1170C1346.57 1152.67 1382.93 1152.67 1419.3 1170C1455.67 1187.33 1492.03 1187.33 1528.4 1170C1564.77 1152.67 1601.13 1152.67 1637.5 1170C1673.87 1187.33 1710.23 1187.33 1746.6 1170C1782.97 1152.67 1819.33 1152.67 1855.7 1170C1892.07 1187.33 1928.43 1187.33 1964.8 1170C2001.17 1152.67 2037.53 1152.67 2073.9 1170C2110.27 1187.33 2146.63 1187.33 2183 1170" stroke="#F5F9FF" stroke-width="2"/>
<path d="M1 1185C37.3667 1167.67 73.7333 1167.67 110.1 1185C146.467 1202.33 182.833 1202.33 219.2 1185C255.567 1167.67 291.933 1167.67 328.3 1185C364.667 1202.33 401.033 1202.33 437.4 1185C473.767 1167.67 510.133 1167.67 546.5 1185C582.867 1202.33 619.233 1202.33 655.6 1185C691.967 1167.67 728.333 1167.67 764.7 1185C801.067 1202.33 837.433 1202.33 873.8 1185C910.167 1167.67 946.533 1167.67 982.9 1185C1019.27 1202.33 1055.63 1202.33 1092 1185C1128.37 1167.67 1164.73 1167.67 1201.1 1185C1237.47 1202.33 1273.83 1202.33 1310.2 1185C1346.57 1167.67 1382.93 1167.67 1419.3 1185C1455.67 1202.33 1492.03 1202.33 1528.4 1185C1564.77 1167.67 1601.13 1167.67 1637.5 1185C1673.87 1202.33 1710.23 1202.33 1746.6 1185C1782.97 1167.67 1819.33 1167.67 1855.7 1185C1892.07 1202.33 1928.43 1202.33 1964.8 1185C2001.17 1167.67 2037.53 1167.67 2073.9 1185C2110.27 1202.33 2146.63 1202.33 2183 1185" stroke="#F5F9FF" stroke-width="2"/>
<path d="M1 1200C37.3667 1182.67 73.7333 1182.67 110.1 1200C146.467 1217.33 182.833 1217.33 219.2 1200C255.567 1182.67 291.933 1182.67 328.3 1200C364.667 1217.33 401.033 1217.33 437.4 1200C473.767 1182.67 510.133 1182.67 546.5 1200C582.867 1217.33 619.233 1217.33 655.6 1200C691.967 1182.67 728.333 1182.67 764.7 1200C801.067 1217.33 837.433 1217.33 873.8 1200C910.167 1182.67 946.533 1182.67 982.9 1200C1019.27 1217.33 1055.63 1217.33 1092 1200C1128.37 1182.67 1164.73 1182.67 1201.1 1200C1237.47 1217.33 1273.83 1217.33 1310.2 1200C1346.57 1182.67 1382.93 1182.67 1419.3 1200C1455.67 1217.33 1492.03 1217.33 1528.4 1200C1564.77 1182.67 1601.13 1182.67 1637.5 1200C1673.87 1217.33 1710.23 1217.33 1746.6 1200C1782.97 1182.67 1819.33 1182.67 1855.7 1200C1892.07 1217.33 1928.43 1217.33 1964.8 1200C2001.17 1182.67 2037.53 1182.67 2073.9 1200C2110.27 1217.33 2146.63 1217.33 2183 1200" stroke="#F5F9FF" stroke-width="2"/>
<path d="M1 1215C37.3667 1197.67 73.7333 1197.67 110.1 1215C146.467 1232.33 182.833 1232.33 219.2 1215C255.567 1197.67 291.933 1197.67 328.3 1215C364.667 1232.33 401.033 1232.33 437.4 1215C473.767 1197.67 510.133 1197.67 546.5 1215C582.867 1232.33 619.233 1232.33 655.6 1215C691.967 1197.67 728.333 1197.67 764.7 1215C801.067 1232.33 837.433 1232.33 873.8 1215C910.167 1197.67 946.533 1197.67 982.9 1215C1019.27 1232.33 1055.63 1232.33 1092 1215C1128.37 1197.67 1164.73 1197.67 1201.1 1215C1237.47 1232.33 1273.83 1232.33 1310.2 1215C1346.57 1197.67 1382.93 1197.67 1419.3 1215C1455.67 1232.33 1492.03 1232.33 1528.4 1215C1564.77 1197.67 1601.13 1197.67 1637.5 1215C1673.87 1232.33 1710.23 1232.33 1746.6 1215C1782.97 1197.67 1819.33 1197.67 1855.7 1215C1892.07 1232.33 1928.43 1232.33 1964.8 1215C2001.17 1197.67 2037.53 1197.67 2073.9 1215C2110.27 1232.33 2146.63 1232.33 2183 1215" stroke="#F5F9FF" stroke-width="2"/>
<path d="M1 1230C37.3667 1212.67 73.7333 1212.67 110.1 1230C146.467 1247.33 182.833 1247.33 219.2 1230C255.567 1212.67 291.933 1212.67 328.3 1230C364.667 1247.33 401.033 1247.33 437.4 1230C473.767 1212.67 510.133 1212.67 546.5 1230C582.867 1247.33 619.233 1247.33 655.6 1230C691.967 1212.67 728.333 1212.67 764.7 1230C801.067 1247.33 837.433 1247.33 873.8 1230C910.167 1212.67 946.533 1212.67 982.9 1230C1019.27 1247.33 1055.63 1247.33 1092 1230C1128.37 1212.67 1164.73 1212.67 1201.1 1230C1237.47 1247.33 1273.83 1247.33 1310.2 1230C1346.57 1212.67 1382.93 1212.67 1419.3 1230C1455.67 1247.33 1492.03 1247.33 1528.4 1230C1564.77 1212.67 1601.13 1212.67 1637.5 1230C1673.87 1247.33 1710.23 1247.33 1746.6 1230C1782.97 1212.67 1819.33 1212.67 1855.7 1230C1892.07 1247.33 1928.43 1247.33 1964.8 1230C2001.17 1212.67 2037.53 1212.67 2073.9 1230C2110.27 1247.33 2146.63 1247.33 2183 1230" stroke="#F5F9FF" stroke-width="2"/>
<path d="M1 1245C37.3667 1227.67 73.7333 1227.67 110.1 1245C146.467 1262.33 182.833 1262.33 219.2 1245C255.567 1227.67 291.933 1227.67 328.3 1245C364.667 1262.33 401.033 1262.33 437.4 1245C473.767 1227.67 510.133 1227.67 546.5 1245C582.867 1262.33 619.233 1262.33 655.6 1245C691.967 1227.67 728.333 1227.67 764.7 1245C801.067 1262.33 837.433 1262.33 873.8 1245C910.167 1227.67 946.533 1227.67 982.9 1245C1019.27 1262.33 1055.63 1262.33 1092 1245C1128.37 1227.67 1164.73 1227.67 1201.1 1245C1237.47 1262.33 1273.83 1262.33 1310.2 1245C1346.57 1227.67 1382.93 1227.67 1419.3 1245C1455.67 1262.33 1492.03 1262.33 1528.4 1245C1564.77 1227.67 1601.13 1227.67 1637.5 1245C1673.87 1262.33 1710.23 1262.33 1746.6 1245C1782.97 1227.67 1819.33 1227.67 1855.7 1245C1892.07 1262.33 1928.43 1262.33 1964.8 1245C2001.17 1227.67 2037.53 1227.67 2073.9 1245C2110.27 1262.33 2146.63 1262.33 2183 1245" stroke="#F5F9FF" stroke-width="2"/>
<path d="M1 1260C37.3667 1242.67 73.7333 1242.67 110.1 1260C146.467 1277.33 182.833 1277.33 219.2 1260C255.567 1242.67 291.933 1242.67 328.3 1260C364.667 1277.33 401.033 1277.33 437.4 1260C473.767 1242.67 510.133 1242.67 546.5 1260C582.867 1277.33 619.233 1277.33 655.6 1260C691.967 1242.67 728.333 1242.67 764.7 1260C801.067 1277.33 837.433 1277.33 873.8 1260C910.167 1242.67 946.533 1242.67 982.9 1260C1019.27 1277.33 1055.63 1277.33 1092 1260C1128.37 1242.67 1164.73 1242.67 1201.1 1260C1237.47 1277.33 1273.83 1277.33 1310.2 1260C1346.57 1242.67 1382.93 1242.67 1419.3 1260C1455.67 1277.33 1492.03 1277.33 1528.4 1260C1564.77 1242.67 1601.13 1242.67 1637.5 1260C1673.87 1277.33 1710.23 1277.33 1746.6 1260C1782.97 1242.67 1819.33 1242.67 1855.7 1260C1892.07 1277.33 1928.43 1277.33 1964.8 1260C2001.17 1242.67 2037.53 1242.67 2073.9 1260C2110.27 1277.33 2146.63 1277.33 2183 1260" stroke="#F5F9FF" stroke-width="2"/>
<path d="M1 1275C37.3667 1257.67 73.7333 1257.67 110.1 1275C146.467 1292.33 182.833 1292.33 219.2 1275C255.567 1257.67 291.933 1257.67 328.3 1275C364.667 1292.33 401.033 1292.33 437.4 1275C473.767 1257.67 510.133 1257.67 546.5 1275C582.867 1292.33 619.233 1292.33 655.6 1275C691.967 1257.67 728.333 1257.67 764.7 1275C801.067 1292.33 837.433 1292.33 873.8 1275C910.167 1257.67 946.533 1257.67 982.9 1275C1019.27 1292.33 1055.63 1292.33 1092 1275C1128.37 1257.67 1164.73 1257.67 1201.1 1275C1237.47 1292.33 1273.83 1292.33 1310.2 1275C1346.57 1257.67 1382.93 1257.67 1419.3 1275C1455.67 1292.33 1492.03 1292.33 1528.4 1275C1564.77 1257.67 1601.13 1257.67 1637.5 1275C1673.87 1292.33 1710.23 1292.33 1746.6 1275C1782.97 1257.67 1819.33 1257.67 1855.7 1275C1892.07 1292.33 1928.43 1292.33 1964.8 1275C2001.17 1257.67 2037.53 1257.67 2073.9 1275C2110.27 1292.33 2146.63 1292.33 2183 1275" stroke="#F5F9FF" stroke-width="2"/>
<path d="M1 1290C37.3667 1272.67 73.7333 1272.67 110.1 1290C146.467 1307.33 182.833 1307.33 219.2 1290C255.567 1272.67 291.933 1272.67 328.3 1290C364.667 1307.33 401.033 1307.33 437.4 1290C473.767 1272.67 510.133 1272.67 546.5 1290C582.867 1307.33 619.233 1307.33 655.6 1290C691.967 1272.67 728.333 1272.67 764.7 1290C801.067 1307.33 837.433 1307.33 873.8 1290C910.167 1272.67 946.533 1272.67 982.9 1290C1019.27 1307.33 1055.63 1307.33 1092 1290C1128.37 1272.67 1164.73 1272.67 1201.1 1290C1237.47 1307.33 1273.83 1307.33 1310.2 1290C1346.57 1272.67 1382.93 1272.67 1419.3 1290C1455.67 1307.33 1492.03 1307.33 1528.4 1290C1564.77 1272.67 1601.13 1272.67 1637.5 1290C1673.87 1307.33 1710.23 1307.33 1746.6 1290C1782.97 1272.67 1819.33 1272.67 1855.7 1290C1892.07 1307.33 1928.43 1307.33 1964.8 1290C2001.17 1272.67 2037.53 1272.67 2073.9 1290C2110.27 1307.33 2146.63 1307.33 2183 1290" stroke="#F5F9FF" stroke-width="2"/>
<path d="M1 1305C37.3667 1287.67 73.7333 1287.67 110.1 1305C146.467 1322.33 182.833 1322.33 219.2 1305C255.567 1287.67 291.933 1287.67 328.3 1305C364.667 1322.33 401.033 1322.33 437.4 1305C473.767 1287.67 510.133 1287.67 546.5 1305C582.867 1322.33 619.233 1322.33 655.6 1305C691.967 1287.67 728.333 1287.67 764.7 1305C801.067 1322.33 837.433 1322.33 873.8 1305C910.167 1287.67 946.533 1287.67 982.9 1305C1019.27 1322.33 1055.63 1322.33 1092 1305C1128.37 1287.67 1164.73 1287.67 1201.1 1305C1237.47 1322.33 1273.83 1322.33 1310.2 1305C1346.57 1287.67 1382.93 1287.67 1419.3 1305C1455.67 1322.33 1492.03 1322.33 1528.4 1305C1564.77 1287.67 1601.13 1287.67 1637.5 1305C1673.87 1322.33 1710.23 1322.33 1746.6 1305C1782.97 1287.67 1819.33 1287.67 1855.7 1305C1892.07 1322.33 1928.43 1322.33 1964.8 1305C2001.17 1287.67 2037.53 1287.67 2073.9 1305C2110.27 1322.33 2146.63 1322.33 2183 1305" stroke="#F5F9FF" stroke-width="2"/>
<path d="M1 1320C37.3667 1302.67 73.7333 1302.67 110.1 1320C146.467 1337.33 182.833 1337.33 219.2 1320C255.567 1302.67 291.933 1302.67 328.3 1320C364.667 1337.33 401.033 1337.33 437.4 1320C473.767 1302.67 510.133 1302.67 546.5 1320C582.867 1337.33 619.233 1337.33 655.6 1320C691.967 1302.67 728.333 1302.67 764.7 1320C801.067 1337.33 837.433 1337.33 873.8 1320C910.167 1302.67 946.533 1302.67 982.9 1320C1019.27 1337.33 1055.63 1337.33 1092 1320C1128.37 1302.67 1164.73 1302.67 1201.1 1320C1237.47 1337.33 1273.83 1337.33 1310.2 1320C1346.57 1302.67 1382.93 1302.67 1419.3 1320C1455.67 1337.33 1492.03 1337.33 1528.4 1320C1564.77 1302.67 1601.13 1302.67 1637.5 1320C1673.87 1337.33 1710.23 1337.33 1746.6 1320C1782.97 1302.67 1819.33 1302.67 1855.7 1320C1892.07 1337.33 1928.43 1337.33 1964.8 1320C2001.17 1302.67 2037.53 1302.67 2073.9 1320C2110.27 1337.33 2146.63 1337.33 2183 1320" stroke="#F5F9FF" stroke-width="2"/>
<path d="M1 675C37.3667 657.667 73.7333 657.667 110.1 675C146.467 692.333 182.833 692.333 219.2 675C255.567 657.667 291.933 657.667 328.3 675C364.667 692.333 401.033 692.333 437.4 675C473.767 657.667 510.133 657.667 546.5 675C582.867 692.333 619.233 692.333 655.6 675C691.967 657.667 728.333 657.667 764.7 675C801.067 692.333 837.433 692.333 873.8 675C910.167 657.667 946.533 657.667 982.9 675C1019.27 692.333 1055.63 692.333 1092 675C1128.37 657.667 1164.73 657.667 1201.1 675C1237.47 692.333 1273.83 692.333 1310.2 675C1346.57 657.667 1382.93 657.667 1419.3 675C1455.67 692.333 1492.03 692.333 1528.4 675C1564.77 657.667 1601.13 657.667 1637.5 675C1673.87 692.333 1710.23 692.333 1746.6 675C1782.97 657.667 1819.33 657.667 1855.7 675C1892.07 692.333 1928.43 692.333 1964.8 675C2001.17 657.667 2037.53 657.667 2073.9 675C2110.27 692.333 2146.63 692.333 2183 675" stroke="#F5F9FF" stroke-width="2"/>
<path d="M1 690C37.3667 672.667 73.7333 672.667 110.1 690C146.467 707.333 182.833 707.333 219.2 690C255.567 672.667 291.933 672.667 328.3 690C364.667 707.333 401.033 707.333 437.4 690C473.767 672.667 510.133 672.667 546.5 690C582.867 707.333 619.233 707.333 655.6 690C691.967 672.667 728.333 672.667 764.7 690C801.067 707.333 837.433 707.333 873.8 690C910.167 672.667 946.533 672.667 982.9 690C1019.27 707.333 1055.63 707.333 1092 690C1128.37 672.667 1164.73 672.667 1201.1 690C1237.47 707.333 1273.83 707.333 1310.2 690C1346.57 672.667 1382.93 672.667 1419.3 690C1455.67 707.333 1492.03 707.333 1528.4 690C1564.77 672.667 1601.13 672.667 1637.5 690C1673.87 707.333 1710.23 707.333 1746.6 690C1782.97 672.667 1819.33 672.667 1855.7 690C1892.07 707.333 1928.43 707.333 1964.8 690C2001.17 672.667 2037.53 672.667 2073.9 690C2110.27 707.333 2146.63 707.333 2183 690" stroke="#F5F9FF" stroke-width="2"/>
<path d="M1 705C37.3667 687.667 73.7333 687.667 110.1 705C146.467 722.333 182.833 722.333 219.2 705C255.567 687.667 291.933 687.667 328.3 705C364.667 722.333 401.033 722.333 437.4 705C473.767 687.667 510.133 687.667 546.5 705C582.867 722.333 619.233 722.333 655.6 705C691.967 687.667 728.333 687.667 764.7 705C801.067 722.333 837.433 722.333 873.8 705C910.167 687.667 946.533 687.667 982.9 705C1019.27 722.333 1055.63 722.333 1092 705C1128.37 687.667 1164.73 687.667 1201.1 705C1237.47 722.333 1273.83 722.333 1310.2 705C1346.57 687.667 1382.93 687.667 1419.3 705C1455.67 722.333 1492.03 722.333 1528.4 705C1564.77 687.667 1601.13 687.667 1637.5 705C1673.87 722.333 1710.23 722.333 1746.6 705C1782.97 687.667 1819.33 687.667 1855.7 705C1892.07 722.333 1928.43 722.333 1964.8 705C2001.17 687.667 2037.53 687.667 2073.9 705C2110.27 722.333 2146.63 722.333 2183 705" stroke="#F5F9FF" stroke-width="2"/>
<path d="M1 720C37.3667 702.667 73.7333 702.667 110.1 720C146.467 737.333 182.833 737.333 219.2 720C255.567 702.667 291.933 702.667 328.3 720C364.667 737.333 401.033 737.333 437.4 720C473.767 702.667 510.133 702.667 546.5 720C582.867 737.333 619.233 737.333 655.6 720C691.967 702.667 728.333 702.667 764.7 720C801.067 737.333 837.433 737.333 873.8 720C910.167 702.667 946.533 702.667 982.9 720C1019.27 737.333 1055.63 737.333 1092 720C1128.37 702.667 1164.73 702.667 1201.1 720C1237.47 737.333 1273.83 737.333 1310.2 720C1346.57 702.667 1382.93 702.667 1419.3 720C1455.67 737.333 1492.03 737.333 1528.4 720C1564.77 702.667 1601.13 702.667 1637.5 720C1673.87 737.333 1710.23 737.333 1746.6 720C1782.97 702.667 1819.33 702.667 1855.7 720C1892.07 737.333 1928.43 737.333 1964.8 720C2001.17 702.667 2037.53 702.667 2073.9 720C2110.27 737.333 2146.63 737.333 2183 720" stroke="#F5F9FF" stroke-width="2"/>
<path d="M1 735C37.3667 717.667 73.7333 717.667 110.1 735C146.467 752.333 182.833 752.333 219.2 735C255.567 717.667 291.933 717.667 328.3 735C364.667 752.333 401.033 752.333 437.4 735C473.767 717.667 510.133 717.667 546.5 735C582.867 752.333 619.233 752.333 655.6 735C691.967 717.667 728.333 717.667 764.7 735C801.067 752.333 837.433 752.333 873.8 735C910.167 717.667 946.533 717.667 982.9 735C1019.27 752.333 1055.63 752.333 1092 735C1128.37 717.667 1164.73 717.667 1201.1 735C1237.47 752.333 1273.83 752.333 1310.2 735C1346.57 717.667 1382.93 717.667 1419.3 735C1455.67 752.333 1492.03 752.333 1528.4 735C1564.77 717.667 1601.13 717.667 1637.5 735C1673.87 752.333 1710.23 752.333 1746.6 735C1782.97 717.667 1819.33 717.667 1855.7 735C1892.07 752.333 1928.43 752.333 1964.8 735C2001.17 717.667 2037.53 717.667 2073.9 735C2110.27 752.333 2146.63 752.333 2183 735" stroke="#F5F9FF" stroke-width="2"/>
<path d="M1 750C37.3667 732.667 73.7333 732.667 110.1 750C146.467 767.333 182.833 767.333 219.2 750C255.567 732.667 291.933 732.667 328.3 750C364.667 767.333 401.033 767.333 437.4 750C473.767 732.667 510.133 732.667 546.5 750C582.867 767.333 619.233 767.333 655.6 750C691.967 732.667 728.333 732.667 764.7 750C801.067 767.333 837.433 767.333 873.8 750C910.167 732.667 946.533 732.667 982.9 750C1019.27 767.333 1055.63 767.333 1092 750C1128.37 732.667 1164.73 732.667 1201.1 750C1237.47 767.333 1273.83 767.333 1310.2 750C1346.57 732.667 1382.93 732.667 1419.3 750C1455.67 767.333 1492.03 767.333 1528.4 750C1564.77 732.667 1601.13 732.667 1637.5 750C1673.87 767.333 1710.23 767.333 1746.6 750C1782.97 732.667 1819.33 732.667 1855.7 750C1892.07 767.333 1928.43 767.333 1964.8 750C2001.17 732.667 2037.53 732.667 2073.9 750C2110.27 767.333 2146.63 767.333 2183 750" stroke="#F5F9FF" stroke-width="2"/>
<path d="M1 765C37.3667 747.667 73.7333 747.667 110.1 765C146.467 782.333 182.833 782.333 219.2 765C255.567 747.667 291.933 747.667 328.3 765C364.667 782.333 401.033 782.333 437.4 765C473.767 747.667 510.133 747.667 546.5 765C582.867 782.333 619.233 782.333 655.6 765C691.967 747.667 728.333 747.667 764.7 765C801.067 782.333 837.433 782.333 873.8 765C910.167 747.667 946.533 747.667 982.9 765C1019.27 782.333 1055.63 782.333 1092 765C1128.37 747.667 1164.73 747.667 1201.1 765C1237.47 782.333 1273.83 782.333 1310.2 765C1346.57 747.667 1382.93 747.667 1419.3 765C1455.67 782.333 1492.03 782.333 1528.4 765C1564.77 747.667 1601.13 747.667 1637.5 765C1673.87 782.333 1710.23 782.333 1746.6 765C1782.97 747.667 1819.33 747.667 1855.7 765C1892.07 782.333 1928.43 782.333 1964.8 765C2001.17 747.667 2037.53 747.667 2073.9 765C2110.27 782.333 2146.63 782.333 2183 765" stroke="#F5F9FF" stroke-width="2"/>
<path d="M1 780C37.3667 762.667 73.7333 762.667 110.1 780C146.467 797.333 182.833 797.333 219.2 780C255.567 762.667 291.933 762.667 328.3 780C364.667 797.333 401.033 797.333 437.4 780C473.767 762.667 510.133 762.667 546.5 780C582.867 797.333 619.233 797.333 655.6 780C691.967 762.667 728.333 762.667 764.7 780C801.067 797.333 837.433 797.333 873.8 780C910.167 762.667 946.533 762.667 982.9 780C1019.27 797.333 1055.63 797.333 1092 780C1128.37 762.667 1164.73 762.667 1201.1 780C1237.47 797.333 1273.83 797.333 1310.2 780C1346.57 762.667 1382.93 762.667 1419.3 780C1455.67 797.333 1492.03 797.333 1528.4 780C1564.77 762.667 1601.13 762.667 1637.5 780C1673.87 797.333 1710.23 797.333 1746.6 780C1782.97 762.667 1819.33 762.667 1855.7 780C1892.07 797.333 1928.43 797.333 1964.8 780C2001.17 762.667 2037.53 762.667 2073.9 780C2110.27 797.333 2146.63 797.333 2183 780" stroke="#F5F9FF" stroke-width="2"/>
<path d="M1 795C37.3667 777.667 73.7333 777.667 110.1 795C146.467 812.333 182.833 812.333 219.2 795C255.567 777.667 291.933 777.667 328.3 795C364.667 812.333 401.033 812.333 437.4 795C473.767 777.667 510.133 777.667 546.5 795C582.867 812.333 619.233 812.333 655.6 795C691.967 777.667 728.333 777.667 764.7 795C801.067 812.333 837.433 812.333 873.8 795C910.167 777.667 946.533 777.667 982.9 795C1019.27 812.333 1055.63 812.333 1092 795C1128.37 777.667 1164.73 777.667 1201.1 795C1237.47 812.333 1273.83 812.333 1310.2 795C1346.57 777.667 1382.93 777.667 1419.3 795C1455.67 812.333 1492.03 812.333 1528.4 795C1564.77 777.667 1601.13 777.667 1637.5 795C1673.87 812.333 1710.23 812.333 1746.6 795C1782.97 777.667 1819.33 777.667 1855.7 795C1892.07 812.333 1928.43 812.333 1964.8 795C2001.17 777.667 2037.53 777.667 2073.9 795C2110.27 812.333 2146.63 812.333 2183 795" stroke="#F5F9FF" stroke-width="2"/>
<path d="M1 810C37.3667 792.667 73.7333 792.667 110.1 810C146.467 827.333 182.833 827.333 219.2 810C255.567 792.667 291.933 792.667 328.3 810C364.667 827.333 401.033 827.333 437.4 810C473.767 792.667 510.133 792.667 546.5 810C582.867 827.333 619.233 827.333 655.6 810C691.967 792.667 728.333 792.667 764.7 810C801.067 827.333 837.433 827.333 873.8 810C910.167 792.667 946.533 792.667 982.9 810C1019.27 827.333 1055.63 827.333 1092 810C1128.37 792.667 1164.73 792.667 1201.1 810C1237.47 827.333 1273.83 827.333 1310.2 810C1346.57 792.667 1382.93 792.667 1419.3 810C1455.67 827.333 1492.03 827.333 1528.4 810C1564.77 792.667 1601.13 792.667 1637.5 810C1673.87 827.333 1710.23 827.333 1746.6 810C1782.97 792.667 1819.33 792.667 1855.7 810C1892.07 827.333 1928.43 827.333 1964.8 810C2001.17 792.667 2037.53 792.667 2073.9 810C2110.27 827.333 2146.63 827.333 2183 810" stroke="#F5F9FF" stroke-width="2"/>
<path d="M1 825C37.3667 807.667 73.7333 807.667 110.1 825C146.467 842.333 182.833 842.333 219.2 825C255.567 807.667 291.933 807.667 328.3 825C364.667 842.333 401.033 842.333 437.4 825C473.767 807.667 510.133 807.667 546.5 825C582.867 842.333 619.233 842.333 655.6 825C691.967 807.667 728.333 807.667 764.7 825C801.067 842.333 837.433 842.333 873.8 825C910.167 807.667 946.533 807.667 982.9 825C1019.27 842.333 1055.63 842.333 1092 825C1128.37 807.667 1164.73 807.667 1201.1 825C1237.47 842.333 1273.83 842.333 1310.2 825C1346.57 807.667 1382.93 807.667 1419.3 825C1455.67 842.333 1492.03 842.333 1528.4 825C1564.77 807.667 1601.13 807.667 1637.5 825C1673.87 842.333 1710.23 842.333 1746.6 825C1782.97 807.667 1819.33 807.667 1855.7 825C1892.07 842.333 1928.43 842.333 1964.8 825C2001.17 807.667 2037.53 807.667 2073.9 825C2110.27 842.333 2146.63 842.333 2183 825" stroke="#F5F9FF" stroke-width="2"/>
<path d="M1 840C37.3667 822.667 73.7333 822.667 110.1 840C146.467 857.333 182.833 857.333 219.2 840C255.567 822.667 291.933 822.667 328.3 840C364.667 857.333 401.033 857.333 437.4 840C473.767 822.667 510.133 822.667 546.5 840C582.867 857.333 619.233 857.333 655.6 840C691.967 822.667 728.333 822.667 764.7 840C801.067 857.333 837.433 857.333 873.8 840C910.167 822.667 946.533 822.667 982.9 840C1019.27 857.333 1055.63 857.333 1092 840C1128.37 822.667 1164.73 822.667 1201.1 840C1237.47 857.333 1273.83 857.333 1310.2 840C1346.57 822.667 1382.93 822.667 1419.3 840C1455.67 857.333 1492.03 857.333 1528.4 840C1564.77 822.667 1601.13 822.667 1637.5 840C1673.87 857.333 1710.23 857.333 1746.6 840C1782.97 822.667 1819.33 822.667 1855.7 840C1892.07 857.333 1928.43 857.333 1964.8 840C2001.17 822.667 2037.53 822.667 2073.9 840C2110.27 857.333 2146.63 857.333 2183 840" stroke="#F5F9FF" stroke-width="2"/>
<path d="M1 855C37.3667 837.667 73.7333 837.667 110.1 855C146.467 872.333 182.833 872.333 219.2 855C255.567 837.667 291.933 837.667 328.3 855C364.667 872.333 401.033 872.333 437.4 855C473.767 837.667 510.133 837.667 546.5 855C582.867 872.333 619.233 872.333 655.6 855C691.967 837.667 728.333 837.667 764.7 855C801.067 872.333 837.433 872.333 873.8 855C910.167 837.667 946.533 837.667 982.9 855C1019.27 872.333 1055.63 872.333 1092 855C1128.37 837.667 1164.73 837.667 1201.1 855C1237.47 872.333 1273.83 872.333 1310.2 855C1346.57 837.667 1382.93 837.667 1419.3 855C1455.67 872.333 1492.03 872.333 1528.4 855C1564.77 837.667 1601.13 837.667 1637.5 855C1673.87 872.333 1710.23 872.333 1746.6 855C1782.97 837.667 1819.33 837.667 1855.7 855C1892.07 872.333 1928.43 872.333 1964.8 855C2001.17 837.667 2037.53 837.667 2073.9 855C2110.27 872.333 2146.63 872.333 2183 855" stroke="#F5F9FF" stroke-width="2"/>
<path d="M1 870C37.3667 852.667 73.7333 852.667 110.1 870C146.467 887.333 182.833 887.333 219.2 870C255.567 852.667 291.933 852.667 328.3 870C364.667 887.333 401.033 887.333 437.4 870C473.767 852.667 510.133 852.667 546.5 870C582.867 887.333 619.233 887.333 655.6 870C691.967 852.667 728.333 852.667 764.7 870C801.067 887.333 837.433 887.333 873.8 870C910.167 852.667 946.533 852.667 982.9 870C1019.27 887.333 1055.63 887.333 1092 870C1128.37 852.667 1164.73 852.667 1201.1 870C1237.47 887.333 1273.83 887.333 1310.2 870C1346.57 852.667 1382.93 852.667 1419.3 870C1455.67 887.333 1492.03 887.333 1528.4 870C1564.77 852.667 1601.13 852.667 1637.5 870C1673.87 887.333 1710.23 887.333 1746.6 870C1782.97 852.667 1819.33 852.667 1855.7 870C1892.07 887.333 1928.43 887.333 1964.8 870C2001.17 852.667 2037.53 852.667 2073.9 870C2110.27 887.333 2146.63 887.333 2183 870" stroke="#F5F9FF" stroke-width="2"/>
<path d="M1 885C37.3667 867.667 73.7333 867.667 110.1 885C146.467 902.333 182.833 902.333 219.2 885C255.567 867.667 291.933 867.667 328.3 885C364.667 902.333 401.033 902.333 437.4 885C473.767 867.667 510.133 867.667 546.5 885C582.867 902.333 619.233 902.333 655.6 885C691.967 867.667 728.333 867.667 764.7 885C801.067 902.333 837.433 902.333 873.8 885C910.167 867.667 946.533 867.667 982.9 885C1019.27 902.333 1055.63 902.333 1092 885C1128.37 867.667 1164.73 867.667 1201.1 885C1237.47 902.333 1273.83 902.333 1310.2 885C1346.57 867.667 1382.93 867.667 1419.3 885C1455.67 902.333 1492.03 902.333 1528.4 885C1564.77 867.667 1601.13 867.667 1637.5 885C1673.87 902.333 1710.23 902.333 1746.6 885C1782.97 867.667 1819.33 867.667 1855.7 885C1892.07 902.333 1928.43 902.333 1964.8 885C2001.17 867.667 2037.53 867.667 2073.9 885C2110.27 902.333 2146.63 902.333 2183 885" stroke="#F5F9FF" stroke-width="2"/>
<path d="M1 900C37.3667 882.667 73.7333 882.667 110.1 900C146.467 917.333 182.833 917.333 219.2 900C255.567 882.667 291.933 882.667 328.3 900C364.667 917.333 401.033 917.333 437.4 900C473.767 882.667 510.133 882.667 546.5 900C582.867 917.333 619.233 917.333 655.6 900C691.967 882.667 728.333 882.667 764.7 900C801.067 917.333 837.433 917.333 873.8 900C910.167 882.667 946.533 882.667 982.9 900C1019.27 917.333 1055.63 917.333 1092 900C1128.37 882.667 1164.73 882.667 1201.1 900C1237.47 917.333 1273.83 917.333 1310.2 900C1346.57 882.667 1382.93 882.667 1419.3 900C1455.67 917.333 1492.03 917.333 1528.4 900C1564.77 882.667 1601.13 882.667 1637.5 900C1673.87 917.333 1710.23 917.333 1746.6 900C1782.97 882.667 1819.33 882.667 1855.7 900C1892.07 917.333 1928.43 917.333 1964.8 900C2001.17 882.667 2037.53 882.667 2073.9 900C2110.27 917.333 2146.63 917.333 2183 900" stroke="#F5F9FF" stroke-width="2"/>
<path d="M1 915C37.3667 897.667 73.7333 897.667 110.1 915C146.467 932.333 182.833 932.333 219.2 915C255.567 897.667 291.933 897.667 328.3 915C364.667 932.333 401.033 932.333 437.4 915C473.767 897.667 510.133 897.667 546.5 915C582.867 932.333 619.233 932.333 655.6 915C691.967 897.667 728.333 897.667 764.7 915C801.067 932.333 837.433 932.333 873.8 915C910.167 897.667 946.533 897.667 982.9 915C1019.27 932.333 1055.63 932.333 1092 915C1128.37 897.667 1164.73 897.667 1201.1 915C1237.47 932.333 1273.83 932.333 1310.2 915C1346.57 897.667 1382.93 897.667 1419.3 915C1455.67 932.333 1492.03 932.333 1528.4 915C1564.77 897.667 1601.13 897.667 1637.5 915C1673.87 932.333 1710.23 932.333 1746.6 915C1782.97 897.667 1819.33 897.667 1855.7 915C1892.07 932.333 1928.43 932.333 1964.8 915C2001.17 897.667 2037.53 897.667 2073.9 915C2110.27 932.333 2146.63 932.333 2183 915" stroke="#F5F9FF" stroke-width="2"/>
<path d="M1 930C37.3667 912.667 73.7333 912.667 110.1 930C146.467 947.333 182.833 947.333 219.2 930C255.567 912.667 291.933 912.667 328.3 930C364.667 947.333 401.033 947.333 437.4 930C473.767 912.667 510.133 912.667 546.5 930C582.867 947.333 619.233 947.333 655.6 930C691.967 912.667 728.333 912.667 764.7 930C801.067 947.333 837.433 947.333 873.8 930C910.167 912.667 946.533 912.667 982.9 930C1019.27 947.333 1055.63 947.333 1092 930C1128.37 912.667 1164.73 912.667 1201.1 930C1237.47 947.333 1273.83 947.333 1310.2 930C1346.57 912.667 1382.93 912.667 1419.3 930C1455.67 947.333 1492.03 947.333 1528.4 930C1564.77 912.667 1601.13 912.667 1637.5 930C1673.87 947.333 1710.23 947.333 1746.6 930C1782.97 912.667 1819.33 912.667 1855.7 930C1892.07 947.333 1928.43 947.333 1964.8 930C2001.17 912.667 2037.53 912.667 2073.9 930C2110.27 947.333 2146.63 947.333 2183 930" stroke="#F5F9FF" stroke-width="2"/>
<path d="M1 945C37.3667 927.667 73.7333 927.667 110.1 945C146.467 962.333 182.833 962.333 219.2 945C255.567 927.667 291.933 927.667 328.3 945C364.667 962.333 401.033 962.333 437.4 945C473.767 927.667 510.133 927.667 546.5 945C582.867 962.333 619.233 962.333 655.6 945C691.967 927.667 728.333 927.667 764.7 945C801.067 962.333 837.433 962.333 873.8 945C910.167 927.667 946.533 927.667 982.9 945C1019.27 962.333 1055.63 962.333 1092 945C1128.37 927.667 1164.73 927.667 1201.1 945C1237.47 962.333 1273.83 962.333 1310.2 945C1346.57 927.667 1382.93 927.667 1419.3 945C1455.67 962.333 1492.03 962.333 1528.4 945C1564.77 927.667 1601.13 927.667 1637.5 945C1673.87 962.333 1710.23 962.333 1746.6 945C1782.97 927.667 1819.33 927.667 1855.7 945C1892.07 962.333 1928.43 962.333 1964.8 945C2001.17 927.667 2037.53 927.667 2073.9 945C2110.27 962.333 2146.63 962.333 2183 945" stroke="#F5F9FF" stroke-width="2"/>
<path d="M1 960C37.3667 942.667 73.7333 942.667 110.1 960C146.467 977.333 182.833 977.333 219.2 960C255.567 942.667 291.933 942.667 328.3 960C364.667 977.333 401.033 977.333 437.4 960C473.767 942.667 510.133 942.667 546.5 960C582.867 977.333 619.233 977.333 655.6 960C691.967 942.667 728.333 942.667 764.7 960C801.067 977.333 837.433 977.333 873.8 960C910.167 942.667 946.533 942.667 982.9 960C1019.27 977.333 1055.63 977.333 1092 960C1128.37 942.667 1164.73 942.667 1201.1 960C1237.47 977.333 1273.83 977.333 1310.2 960C1346.57 942.667 1382.93 942.667 1419.3 960C1455.67 977.333 1492.03 977.333 1528.4 960C1564.77 942.667 1601.13 942.667 1637.5 960C1673.87 977.333 1710.23 977.333 1746.6 960C1782.97 942.667 1819.33 942.667 1855.7 960C1892.07 977.333 1928.43 977.333 1964.8 960C2001.17 942.667 2037.53 942.667 2073.9 960C2110.27 977.333 2146.63 977.333 2183 960" stroke="#F5F9FF" stroke-width="2"/>
<path d="M1 975C37.3667 957.667 73.7333 957.667 110.1 975C146.467 992.333 182.833 992.333 219.2 975C255.567 957.667 291.933 957.667 328.3 975C364.667 992.333 401.033 992.333 437.4 975C473.767 957.667 510.133 957.667 546.5 975C582.867 992.333 619.233 992.333 655.6 975C691.967 957.667 728.333 957.667 764.7 975C801.067 992.333 837.433 992.333 873.8 975C910.167 957.667 946.533 957.667 982.9 975C1019.27 992.333 1055.63 992.333 1092 975C1128.37 957.667 1164.73 957.667 1201.1 975C1237.47 992.333 1273.83 992.333 1310.2 975C1346.57 957.667 1382.93 957.667 1419.3 975C1455.67 992.333 1492.03 992.333 1528.4 975C1564.77 957.667 1601.13 957.667 1637.5 975C1673.87 992.333 1710.23 992.333 1746.6 975C1782.97 957.667 1819.33 957.667 1855.7 975C1892.07 992.333 1928.43 992.333 1964.8 975C2001.17 957.667 2037.53 957.667 2073.9 975C2110.27 992.333 2146.63 992.333 2183 975" stroke="#F5F9FF" stroke-width="2"/>
<path d="M1 990C37.3667 972.667 73.7333 972.667 110.1 990C146.467 1007.33 182.833 1007.33 219.2 990C255.567 972.667 291.933 972.667 328.3 990C364.667 1007.33 401.033 1007.33 437.4 990C473.767 972.667 510.133 972.667 546.5 990C582.867 1007.33 619.233 1007.33 655.6 990C691.967 972.667 728.333 972.667 764.7 990C801.067 1007.33 837.433 1007.33 873.8 990C910.167 972.667 946.533 972.667 982.9 990C1019.27 1007.33 1055.63 1007.33 1092 990C1128.37 972.667 1164.73 972.667 1201.1 990C1237.47 1007.33 1273.83 1007.33 1310.2 990C1346.57 972.667 1382.93 972.667 1419.3 990C1455.67 1007.33 1492.03 1007.33 1528.4 990C1564.77 972.667 1601.13 972.667 1637.5 990C1673.87 1007.33 1710.23 1007.33 1746.6 990C1782.97 972.667 1819.33 972.667 1855.7 990C1892.07 1007.33 1928.43 1007.33 1964.8 990C2001.17 972.667 2037.53 972.667 2073.9 990C2110.27 1007.33 2146.63 1007.33 2183 990" stroke="#F5F9FF" stroke-width="2"/>
<path d="M1 14C37.3667 -3.33333 73.7333 -3.33333 110.1 14C146.467 31.3333 182.833 31.3333 219.2 14C255.567 -3.33333 291.933 -3.33333 328.3 14C364.667 31.3333 401.033 31.3333 437.4 14C473.767 -3.33333 510.133 -3.33333 546.5 14C582.867 31.3333 619.233 31.3333 655.6 14C691.967 -3.33333 728.333 -3.33333 764.7 14C801.067 31.3333 837.433 31.3333 873.8 14C910.167 -3.33333 946.533 -3.33333 982.9 14C1019.27 31.3333 1055.63 31.3333 1092 14C1128.37 -3.33333 1164.73 -3.33333 1201.1 14C1237.47 31.3333 1273.83 31.3333 1310.2 14C1346.57 -3.33333 1382.93 -3.33333 1419.3 14C1455.67 31.3333 1492.03 31.3333 1528.4 14C1564.77 -3.33333 1601.13 -3.33333 1637.5 14C1673.87 31.3333 1710.23 31.3333 1746.6 14C1782.97 -3.33333 1819.33 -3.33333 1855.7 14C1892.07 31.3333 1928.43 31.3333 1964.8 14C2001.17 -3.33333 2037.53 -3.33333 2073.9 14C2110.27 31.3333 2146.63 31.3333 2183 14" stroke="#F5F9FF" stroke-width="2"/>
<path d="M1 29C37.3667 11.6667 73.7333 11.6667 110.1 29C146.467 46.3333 182.833 46.3333 219.2 29C255.567 11.6667 291.933 11.6667 328.3 29C364.667 46.3333 401.033 46.3333 437.4 29C473.767 11.6667 510.133 11.6667 546.5 29C582.867 46.3333 619.233 46.3333 655.6 29C691.967 11.6667 728.333 11.6667 764.7 29C801.067 46.3333 837.433 46.3333 873.8 29C910.167 11.6667 946.533 11.6667 982.9 29C1019.27 46.3333 1055.63 46.3333 1092 29C1128.37 11.6667 1164.73 11.6667 1201.1 29C1237.47 46.3333 1273.83 46.3333 1310.2 29C1346.57 11.6667 1382.93 11.6667 1419.3 29C1455.67 46.3333 1492.03 46.3333 1528.4 29C1564.77 11.6667 1601.13 11.6667 1637.5 29C1673.87 46.3333 1710.23 46.3333 1746.6 29C1782.97 11.6667 1819.33 11.6667 1855.7 29C1892.07 46.3333 1928.43 46.3333 1964.8 29C2001.17 11.6667 2037.53 11.6667 2073.9 29C2110.27 46.3333 2146.63 46.3333 2183 29" stroke="#F5F9FF" stroke-width="2"/>
<path d="M1 44C37.3667 26.6667 73.7333 26.6667 110.1 44C146.467 61.3333 182.833 61.3333 219.2 44C255.567 26.6667 291.933 26.6667 328.3 44C364.667 61.3333 401.033 61.3333 437.4 44C473.767 26.6667 510.133 26.6667 546.5 44C582.867 61.3333 619.233 61.3333 655.6 44C691.967 26.6667 728.333 26.6667 764.7 44C801.067 61.3333 837.433 61.3333 873.8 44C910.167 26.6667 946.533 26.6667 982.9 44C1019.27 61.3333 1055.63 61.3333 1092 44C1128.37 26.6667 1164.73 26.6667 1201.1 44C1237.47 61.3333 1273.83 61.3333 1310.2 44C1346.57 26.6667 1382.93 26.6667 1419.3 44C1455.67 61.3333 1492.03 61.3333 1528.4 44C1564.77 26.6667 1601.13 26.6667 1637.5 44C1673.87 61.3333 1710.23 61.3333 1746.6 44C1782.97 26.6667 1819.33 26.6667 1855.7 44C1892.07 61.3333 1928.43 61.3333 1964.8 44C2001.17 26.6667 2037.53 26.6667 2073.9 44C2110.27 61.3333 2146.63 61.3333 2183 44" stroke="#F5F9FF" stroke-width="2"/>
<path d="M1 59C37.3667 41.6667 73.7333 41.6667 110.1 59C146.467 76.3333 182.833 76.3333 219.2 59C255.567 41.6667 291.933 41.6667 328.3 59C364.667 76.3333 401.033 76.3333 437.4 59C473.767 41.6667 510.133 41.6667 546.5 59C582.867 76.3333 619.233 76.3333 655.6 59C691.967 41.6667 728.333 41.6667 764.7 59C801.067 76.3333 837.433 76.3333 873.8 59C910.167 41.6667 946.533 41.6667 982.9 59C1019.27 76.3333 1055.63 76.3333 1092 59C1128.37 41.6667 1164.73 41.6667 1201.1 59C1237.47 76.3333 1273.83 76.3333 1310.2 59C1346.57 41.6667 1382.93 41.6667 1419.3 59C1455.67 76.3333 1492.03 76.3333 1528.4 59C1564.77 41.6667 1601.13 41.6667 1637.5 59C1673.87 76.3333 1710.23 76.3333 1746.6 59C1782.97 41.6667 1819.33 41.6667 1855.7 59C1892.07 76.3333 1928.43 76.3333 1964.8 59C2001.17 41.6667 2037.53 41.6667 2073.9 59C2110.27 76.3333 2146.63 76.3333 2183 59" stroke="#F5F9FF" stroke-width="2"/>
<path d="M1 74C37.3667 56.6667 73.7333 56.6667 110.1 74C146.467 91.3333 182.833 91.3333 219.2 74C255.567 56.6667 291.933 56.6667 328.3 74C364.667 91.3333 401.033 91.3333 437.4 74C473.767 56.6667 510.133 56.6667 546.5 74C582.867 91.3333 619.233 91.3333 655.6 74C691.967 56.6667 728.333 56.6667 764.7 74C801.067 91.3333 837.433 91.3333 873.8 74C910.167 56.6667 946.533 56.6667 982.9 74C1019.27 91.3333 1055.63 91.3333 1092 74C1128.37 56.6667 1164.73 56.6667 1201.1 74C1237.47 91.3333 1273.83 91.3333 1310.2 74C1346.57 56.6667 1382.93 56.6667 1419.3 74C1455.67 91.3333 1492.03 91.3333 1528.4 74C1564.77 56.6667 1601.13 56.6667 1637.5 74C1673.87 91.3333 1710.23 91.3333 1746.6 74C1782.97 56.6667 1819.33 56.6667 1855.7 74C1892.07 91.3333 1928.43 91.3333 1964.8 74C2001.17 56.6667 2037.53 56.6667 2073.9 74C2110.27 91.3333 2146.63 91.3333 2183 74" stroke="#F5F9FF" stroke-width="2"/>
<path d="M1 89C37.3667 71.6667 73.7333 71.6667 110.1 89C146.467 106.333 182.833 106.333 219.2 89C255.567 71.6667 291.933 71.6667 328.3 89C364.667 106.333 401.033 106.333 437.4 89C473.767 71.6667 510.133 71.6667 546.5 89C582.867 106.333 619.233 106.333 655.6 89C691.967 71.6667 728.333 71.6667 764.7 89C801.067 106.333 837.433 106.333 873.8 89C910.167 71.6667 946.533 71.6667 982.9 89C1019.27 106.333 1055.63 106.333 1092 89C1128.37 71.6667 1164.73 71.6667 1201.1 89C1237.47 106.333 1273.83 106.333 1310.2 89C1346.57 71.6667 1382.93 71.6667 1419.3 89C1455.67 106.333 1492.03 106.333 1528.4 89C1564.77 71.6667 1601.13 71.6667 1637.5 89C1673.87 106.333 1710.23 106.333 1746.6 89C1782.97 71.6667 1819.33 71.6667 1855.7 89C1892.07 106.333 1928.43 106.333 1964.8 89C2001.17 71.6667 2037.53 71.6667 2073.9 89C2110.27 106.333 2146.63 106.333 2183 89" stroke="#F5F9FF" stroke-width="2"/>
<path d="M1 104C37.3667 86.6667 73.7333 86.6667 110.1 104C146.467 121.333 182.833 121.333 219.2 104C255.567 86.6667 291.933 86.6667 328.3 104C364.667 121.333 401.033 121.333 437.4 104C473.767 86.6667 510.133 86.6667 546.5 104C582.867 121.333 619.233 121.333 655.6 104C691.967 86.6667 728.333 86.6667 764.7 104C801.067 121.333 837.433 121.333 873.8 104C910.167 86.6667 946.533 86.6667 982.9 104C1019.27 121.333 1055.63 121.333 1092 104C1128.37 86.6667 1164.73 86.6667 1201.1 104C1237.47 121.333 1273.83 121.333 1310.2 104C1346.57 86.6667 1382.93 86.6667 1419.3 104C1455.67 121.333 1492.03 121.333 1528.4 104C1564.77 86.6667 1601.13 86.6667 1637.5 104C1673.87 121.333 1710.23 121.333 1746.6 104C1782.97 86.6667 1819.33 86.6667 1855.7 104C1892.07 121.333 1928.43 121.333 1964.8 104C2001.17 86.6667 2037.53 86.6667 2073.9 104C2110.27 121.333 2146.63 121.333 2183 104" stroke="#F5F9FF" stroke-width="2"/>
<path d="M1 119C37.3667 101.667 73.7333 101.667 110.1 119C146.467 136.333 182.833 136.333 219.2 119C255.567 101.667 291.933 101.667 328.3 119C364.667 136.333 401.033 136.333 437.4 119C473.767 101.667 510.133 101.667 546.5 119C582.867 136.333 619.233 136.333 655.6 119C691.967 101.667 728.333 101.667 764.7 119C801.067 136.333 837.433 136.333 873.8 119C910.167 101.667 946.533 101.667 982.9 119C1019.27 136.333 1055.63 136.333 1092 119C1128.37 101.667 1164.73 101.667 1201.1 119C1237.47 136.333 1273.83 136.333 1310.2 119C1346.57 101.667 1382.93 101.667 1419.3 119C1455.67 136.333 1492.03 136.333 1528.4 119C1564.77 101.667 1601.13 101.667 1637.5 119C1673.87 136.333 1710.23 136.333 1746.6 119C1782.97 101.667 1819.33 101.667 1855.7 119C1892.07 136.333 1928.43 136.333 1964.8 119C2001.17 101.667 2037.53 101.667 2073.9 119C2110.27 136.333 2146.63 136.333 2183 119" stroke="#F5F9FF" stroke-width="2"/>
<path d="M1 134C37.3667 116.667 73.7333 116.667 110.1 134C146.467 151.333 182.833 151.333 219.2 134C255.567 116.667 291.933 116.667 328.3 134C364.667 151.333 401.033 151.333 437.4 134C473.767 116.667 510.133 116.667 546.5 134C582.867 151.333 619.233 151.333 655.6 134C691.967 116.667 728.333 116.667 764.7 134C801.067 151.333 837.433 151.333 873.8 134C910.167 116.667 946.533 116.667 982.9 134C1019.27 151.333 1055.63 151.333 1092 134C1128.37 116.667 1164.73 116.667 1201.1 134C1237.47 151.333 1273.83 151.333 1310.2 134C1346.57 116.667 1382.93 116.667 1419.3 134C1455.67 151.333 1492.03 151.333 1528.4 134C1564.77 116.667 1601.13 116.667 1637.5 134C1673.87 151.333 1710.23 151.333 1746.6 134C1782.97 116.667 1819.33 116.667 1855.7 134C1892.07 151.333 1928.43 151.333 1964.8 134C2001.17 116.667 2037.53 116.667 2073.9 134C2110.27 151.333 2146.63 151.333 2183 134" stroke="#F5F9FF" stroke-width="2"/>
<path d="M1 149C37.3667 131.667 73.7333 131.667 110.1 149C146.467 166.333 182.833 166.333 219.2 149C255.567 131.667 291.933 131.667 328.3 149C364.667 166.333 401.033 166.333 437.4 149C473.767 131.667 510.133 131.667 546.5 149C582.867 166.333 619.233 166.333 655.6 149C691.967 131.667 728.333 131.667 764.7 149C801.067 166.333 837.433 166.333 873.8 149C910.167 131.667 946.533 131.667 982.9 149C1019.27 166.333 1055.63 166.333 1092 149C1128.37 131.667 1164.73 131.667 1201.1 149C1237.47 166.333 1273.83 166.333 1310.2 149C1346.57 131.667 1382.93 131.667 1419.3 149C1455.67 166.333 1492.03 166.333 1528.4 149C1564.77 131.667 1601.13 131.667 1637.5 149C1673.87 166.333 1710.23 166.333 1746.6 149C1782.97 131.667 1819.33 131.667 1855.7 149C1892.07 166.333 1928.43 166.333 1964.8 149C2001.17 131.667 2037.53 131.667 2073.9 149C2110.27 166.333 2146.63 166.333 2183 149" stroke="#F5F9FF" stroke-width="2"/>
<path d="M1 164C37.3667 146.667 73.7333 146.667 110.1 164C146.467 181.333 182.833 181.333 219.2 164C255.567 146.667 291.933 146.667 328.3 164C364.667 181.333 401.033 181.333 437.4 164C473.767 146.667 510.133 146.667 546.5 164C582.867 181.333 619.233 181.333 655.6 164C691.967 146.667 728.333 146.667 764.7 164C801.067 181.333 837.433 181.333 873.8 164C910.167 146.667 946.533 146.667 982.9 164C1019.27 181.333 1055.63 181.333 1092 164C1128.37 146.667 1164.73 146.667 1201.1 164C1237.47 181.333 1273.83 181.333 1310.2 164C1346.57 146.667 1382.93 146.667 1419.3 164C1455.67 181.333 1492.03 181.333 1528.4 164C1564.77 146.667 1601.13 146.667 1637.5 164C1673.87 181.333 1710.23 181.333 1746.6 164C1782.97 146.667 1819.33 146.667 1855.7 164C1892.07 181.333 1928.43 181.333 1964.8 164C2001.17 146.667 2037.53 146.667 2073.9 164C2110.27 181.333 2146.63 181.333 2183 164" stroke="#F5F9FF" stroke-width="2"/>
<path d="M1 179C37.3667 161.667 73.7333 161.667 110.1 179C146.467 196.333 182.833 196.333 219.2 179C255.567 161.667 291.933 161.667 328.3 179C364.667 196.333 401.033 196.333 437.4 179C473.767 161.667 510.133 161.667 546.5 179C582.867 196.333 619.233 196.333 655.6 179C691.967 161.667 728.333 161.667 764.7 179C801.067 196.333 837.433 196.333 873.8 179C910.167 161.667 946.533 161.667 982.9 179C1019.27 196.333 1055.63 196.333 1092 179C1128.37 161.667 1164.73 161.667 1201.1 179C1237.47 196.333 1273.83 196.333 1310.2 179C1346.57 161.667 1382.93 161.667 1419.3 179C1455.67 196.333 1492.03 196.333 1528.4 179C1564.77 161.667 1601.13 161.667 1637.5 179C1673.87 196.333 1710.23 196.333 1746.6 179C1782.97 161.667 1819.33 161.667 1855.7 179C1892.07 196.333 1928.43 196.333 1964.8 179C2001.17 161.667 2037.53 161.667 2073.9 179C2110.27 196.333 2146.63 196.333 2183 179" stroke="#F5F9FF" stroke-width="2"/>
<path d="M1 194C37.3667 176.667 73.7333 176.667 110.1 194C146.467 211.333 182.833 211.333 219.2 194C255.567 176.667 291.933 176.667 328.3 194C364.667 211.333 401.033 211.333 437.4 194C473.767 176.667 510.133 176.667 546.5 194C582.867 211.333 619.233 211.333 655.6 194C691.967 176.667 728.333 176.667 764.7 194C801.067 211.333 837.433 211.333 873.8 194C910.167 176.667 946.533 176.667 982.9 194C1019.27 211.333 1055.63 211.333 1092 194C1128.37 176.667 1164.73 176.667 1201.1 194C1237.47 211.333 1273.83 211.333 1310.2 194C1346.57 176.667 1382.93 176.667 1419.3 194C1455.67 211.333 1492.03 211.333 1528.4 194C1564.77 176.667 1601.13 176.667 1637.5 194C1673.87 211.333 1710.23 211.333 1746.6 194C1782.97 176.667 1819.33 176.667 1855.7 194C1892.07 211.333 1928.43 211.333 1964.8 194C2001.17 176.667 2037.53 176.667 2073.9 194C2110.27 211.333 2146.63 211.333 2183 194" stroke="#F5F9FF" stroke-width="2"/>
<path d="M1 209C37.3667 191.667 73.7333 191.667 110.1 209C146.467 226.333 182.833 226.333 219.2 209C255.567 191.667 291.933 191.667 328.3 209C364.667 226.333 401.033 226.333 437.4 209C473.767 191.667 510.133 191.667 546.5 209C582.867 226.333 619.233 226.333 655.6 209C691.967 191.667 728.333 191.667 764.7 209C801.067 226.333 837.433 226.333 873.8 209C910.167 191.667 946.533 191.667 982.9 209C1019.27 226.333 1055.63 226.333 1092 209C1128.37 191.667 1164.73 191.667 1201.1 209C1237.47 226.333 1273.83 226.333 1310.2 209C1346.57 191.667 1382.93 191.667 1419.3 209C1455.67 226.333 1492.03 226.333 1528.4 209C1564.77 191.667 1601.13 191.667 1637.5 209C1673.87 226.333 1710.23 226.333 1746.6 209C1782.97 191.667 1819.33 191.667 1855.7 209C1892.07 226.333 1928.43 226.333 1964.8 209C2001.17 191.667 2037.53 191.667 2073.9 209C2110.27 226.333 2146.63 226.333 2183 209" stroke="#F5F9FF" stroke-width="2"/>
<path d="M1 224C37.3667 206.667 73.7333 206.667 110.1 224C146.467 241.333 182.833 241.333 219.2 224C255.567 206.667 291.933 206.667 328.3 224C364.667 241.333 401.033 241.333 437.4 224C473.767 206.667 510.133 206.667 546.5 224C582.867 241.333 619.233 241.333 655.6 224C691.967 206.667 728.333 206.667 764.7 224C801.067 241.333 837.433 241.333 873.8 224C910.167 206.667 946.533 206.667 982.9 224C1019.27 241.333 1055.63 241.333 1092 224C1128.37 206.667 1164.73 206.667 1201.1 224C1237.47 241.333 1273.83 241.333 1310.2 224C1346.57 206.667 1382.93 206.667 1419.3 224C1455.67 241.333 1492.03 241.333 1528.4 224C1564.77 206.667 1601.13 206.667 1637.5 224C1673.87 241.333 1710.23 241.333 1746.6 224C1782.97 206.667 1819.33 206.667 1855.7 224C1892.07 241.333 1928.43 241.333 1964.8 224C2001.17 206.667 2037.53 206.667 2073.9 224C2110.27 241.333 2146.63 241.333 2183 224" stroke="#F5F9FF" stroke-width="2"/>
<path d="M1 239C37.3667 221.667 73.7333 221.667 110.1 239C146.467 256.333 182.833 256.333 219.2 239C255.567 221.667 291.933 221.667 328.3 239C364.667 256.333 401.033 256.333 437.4 239C473.767 221.667 510.133 221.667 546.5 239C582.867 256.333 619.233 256.333 655.6 239C691.967 221.667 728.333 221.667 764.7 239C801.067 256.333 837.433 256.333 873.8 239C910.167 221.667 946.533 221.667 982.9 239C1019.27 256.333 1055.63 256.333 1092 239C1128.37 221.667 1164.73 221.667 1201.1 239C1237.47 256.333 1273.83 256.333 1310.2 239C1346.57 221.667 1382.93 221.667 1419.3 239C1455.67 256.333 1492.03 256.333 1528.4 239C1564.77 221.667 1601.13 221.667 1637.5 239C1673.87 256.333 1710.23 256.333 1746.6 239C1782.97 221.667 1819.33 221.667 1855.7 239C1892.07 256.333 1928.43 256.333 1964.8 239C2001.17 221.667 2037.53 221.667 2073.9 239C2110.27 256.333 2146.63 256.333 2183 239" stroke="#F5F9FF" stroke-width="2"/>
<path d="M1 254C37.3667 236.667 73.7333 236.667 110.1 254C146.467 271.333 182.833 271.333 219.2 254C255.567 236.667 291.933 236.667 328.3 254C364.667 271.333 401.033 271.333 437.4 254C473.767 236.667 510.133 236.667 546.5 254C582.867 271.333 619.233 271.333 655.6 254C691.967 236.667 728.333 236.667 764.7 254C801.067 271.333 837.433 271.333 873.8 254C910.167 236.667 946.533 236.667 982.9 254C1019.27 271.333 1055.63 271.333 1092 254C1128.37 236.667 1164.73 236.667 1201.1 254C1237.47 271.333 1273.83 271.333 1310.2 254C1346.57 236.667 1382.93 236.667 1419.3 254C1455.67 271.333 1492.03 271.333 1528.4 254C1564.77 236.667 1601.13 236.667 1637.5 254C1673.87 271.333 1710.23 271.333 1746.6 254C1782.97 236.667 1819.33 236.667 1855.7 254C1892.07 271.333 1928.43 271.333 1964.8 254C2001.17 236.667 2037.53 236.667 2073.9 254C2110.27 271.333 2146.63 271.333 2183 254" stroke="#F5F9FF" stroke-width="2"/>
<path d="M1 269C37.3667 251.667 73.7333 251.667 110.1 269C146.467 286.333 182.833 286.333 219.2 269C255.567 251.667 291.933 251.667 328.3 269C364.667 286.333 401.033 286.333 437.4 269C473.767 251.667 510.133 251.667 546.5 269C582.867 286.333 619.233 286.333 655.6 269C691.967 251.667 728.333 251.667 764.7 269C801.067 286.333 837.433 286.333 873.8 269C910.167 251.667 946.533 251.667 982.9 269C1019.27 286.333 1055.63 286.333 1092 269C1128.37 251.667 1164.73 251.667 1201.1 269C1237.47 286.333 1273.83 286.333 1310.2 269C1346.57 251.667 1382.93 251.667 1419.3 269C1455.67 286.333 1492.03 286.333 1528.4 269C1564.77 251.667 1601.13 251.667 1637.5 269C1673.87 286.333 1710.23 286.333 1746.6 269C1782.97 251.667 1819.33 251.667 1855.7 269C1892.07 286.333 1928.43 286.333 1964.8 269C2001.17 251.667 2037.53 251.667 2073.9 269C2110.27 286.333 2146.63 286.333 2183 269" stroke="#F5F9FF" stroke-width="2"/>
<path d="M1 284C37.3667 266.667 73.7333 266.667 110.1 284C146.467 301.333 182.833 301.333 219.2 284C255.567 266.667 291.933 266.667 328.3 284C364.667 301.333 401.033 301.333 437.4 284C473.767 266.667 510.133 266.667 546.5 284C582.867 301.333 619.233 301.333 655.6 284C691.967 266.667 728.333 266.667 764.7 284C801.067 301.333 837.433 301.333 873.8 284C910.167 266.667 946.533 266.667 982.9 284C1019.27 301.333 1055.63 301.333 1092 284C1128.37 266.667 1164.73 266.667 1201.1 284C1237.47 301.333 1273.83 301.333 1310.2 284C1346.57 266.667 1382.93 266.667 1419.3 284C1455.67 301.333 1492.03 301.333 1528.4 284C1564.77 266.667 1601.13 266.667 1637.5 284C1673.87 301.333 1710.23 301.333 1746.6 284C1782.97 266.667 1819.33 266.667 1855.7 284C1892.07 301.333 1928.43 301.333 1964.8 284C2001.17 266.667 2037.53 266.667 2073.9 284C2110.27 301.333 2146.63 301.333 2183 284" stroke="#F5F9FF" stroke-width="2"/>
<path d="M1 299C37.3667 281.667 73.7333 281.667 110.1 299C146.467 316.333 182.833 316.333 219.2 299C255.567 281.667 291.933 281.667 328.3 299C364.667 316.333 401.033 316.333 437.4 299C473.767 281.667 510.133 281.667 546.5 299C582.867 316.333 619.233 316.333 655.6 299C691.967 281.667 728.333 281.667 764.7 299C801.067 316.333 837.433 316.333 873.8 299C910.167 281.667 946.533 281.667 982.9 299C1019.27 316.333 1055.63 316.333 1092 299C1128.37 281.667 1164.73 281.667 1201.1 299C1237.47 316.333 1273.83 316.333 1310.2 299C1346.57 281.667 1382.93 281.667 1419.3 299C1455.67 316.333 1492.03 316.333 1528.4 299C1564.77 281.667 1601.13 281.667 1637.5 299C1673.87 316.333 1710.23 316.333 1746.6 299C1782.97 281.667 1819.33 281.667 1855.7 299C1892.07 316.333 1928.43 316.333 1964.8 299C2001.17 281.667 2037.53 281.667 2073.9 299C2110.27 316.333 2146.63 316.333 2183 299" stroke="#F5F9FF" stroke-width="2"/>
<path d="M1 314C37.3667 296.667 73.7333 296.667 110.1 314C146.467 331.333 182.833 331.333 219.2 314C255.567 296.667 291.933 296.667 328.3 314C364.667 331.333 401.033 331.333 437.4 314C473.767 296.667 510.133 296.667 546.5 314C582.867 331.333 619.233 331.333 655.6 314C691.967 296.667 728.333 296.667 764.7 314C801.067 331.333 837.433 331.333 873.8 314C910.167 296.667 946.533 296.667 982.9 314C1019.27 331.333 1055.63 331.333 1092 314C1128.37 296.667 1164.73 296.667 1201.1 314C1237.47 331.333 1273.83 331.333 1310.2 314C1346.57 296.667 1382.93 296.667 1419.3 314C1455.67 331.333 1492.03 331.333 1528.4 314C1564.77 296.667 1601.13 296.667 1637.5 314C1673.87 331.333 1710.23 331.333 1746.6 314C1782.97 296.667 1819.33 296.667 1855.7 314C1892.07 331.333 1928.43 331.333 1964.8 314C2001.17 296.667 2037.53 296.667 2073.9 314C2110.27 331.333 2146.63 331.333 2183 314" stroke="#F5F9FF" stroke-width="2"/>
<path d="M1 329C37.3667 311.667 73.7333 311.667 110.1 329C146.467 346.333 182.833 346.333 219.2 329C255.567 311.667 291.933 311.667 328.3 329C364.667 346.333 401.033 346.333 437.4 329C473.767 311.667 510.133 311.667 546.5 329C582.867 346.333 619.233 346.333 655.6 329C691.967 311.667 728.333 311.667 764.7 329C801.067 346.333 837.433 346.333 873.8 329C910.167 311.667 946.533 311.667 982.9 329C1019.27 346.333 1055.63 346.333 1092 329C1128.37 311.667 1164.73 311.667 1201.1 329C1237.47 346.333 1273.83 346.333 1310.2 329C1346.57 311.667 1382.93 311.667 1419.3 329C1455.67 346.333 1492.03 346.333 1528.4 329C1564.77 311.667 1601.13 311.667 1637.5 329C1673.87 346.333 1710.23 346.333 1746.6 329C1782.97 311.667 1819.33 311.667 1855.7 329C1892.07 346.333 1928.43 346.333 1964.8 329C2001.17 311.667 2037.53 311.667 2073.9 329C2110.27 346.333 2146.63 346.333 2183 329" stroke="#F5F9FF" stroke-width="2"/>
<path d="M1 344C37.3667 326.667 73.7333 326.667 110.1 344C146.467 361.333 182.833 361.333 219.2 344C255.567 326.667 291.933 326.667 328.3 344C364.667 361.333 401.033 361.333 437.4 344C473.767 326.667 510.133 326.667 546.5 344C582.867 361.333 619.233 361.333 655.6 344C691.967 326.667 728.333 326.667 764.7 344C801.067 361.333 837.433 361.333 873.8 344C910.167 326.667 946.533 326.667 982.9 344C1019.27 361.333 1055.63 361.333 1092 344C1128.37 326.667 1164.73 326.667 1201.1 344C1237.47 361.333 1273.83 361.333 1310.2 344C1346.57 326.667 1382.93 326.667 1419.3 344C1455.67 361.333 1492.03 361.333 1528.4 344C1564.77 326.667 1601.13 326.667 1637.5 344C1673.87 361.333 1710.23 361.333 1746.6 344C1782.97 326.667 1819.33 326.667 1855.7 344C1892.07 361.333 1928.43 361.333 1964.8 344C2001.17 326.667 2037.53 326.667 2073.9 344C2110.27 361.333 2146.63 361.333 2183 344" stroke="#F5F9FF" stroke-width="2"/>
<path d="M1 359C37.3667 341.667 73.7333 341.667 110.1 359C146.467 376.333 182.833 376.333 219.2 359C255.567 341.667 291.933 341.667 328.3 359C364.667 376.333 401.033 376.333 437.4 359C473.767 341.667 510.133 341.667 546.5 359C582.867 376.333 619.233 376.333 655.6 359C691.967 341.667 728.333 341.667 764.7 359C801.067 376.333 837.433 376.333 873.8 359C910.167 341.667 946.533 341.667 982.9 359C1019.27 376.333 1055.63 376.333 1092 359C1128.37 341.667 1164.73 341.667 1201.1 359C1237.47 376.333 1273.83 376.333 1310.2 359C1346.57 341.667 1382.93 341.667 1419.3 359C1455.67 376.333 1492.03 376.333 1528.4 359C1564.77 341.667 1601.13 341.667 1637.5 359C1673.87 376.333 1710.23 376.333 1746.6 359C1782.97 341.667 1819.33 341.667 1855.7 359C1892.07 376.333 1928.43 376.333 1964.8 359C2001.17 341.667 2037.53 341.667 2073.9 359C2110.27 376.333 2146.63 376.333 2183 359" stroke="#F5F9FF" stroke-width="2"/>
<path d="M1 374C37.3667 356.667 73.7333 356.667 110.1 374C146.467 391.333 182.833 391.333 219.2 374C255.567 356.667 291.933 356.667 328.3 374C364.667 391.333 401.033 391.333 437.4 374C473.767 356.667 510.133 356.667 546.5 374C582.867 391.333 619.233 391.333 655.6 374C691.967 356.667 728.333 356.667 764.7 374C801.067 391.333 837.433 391.333 873.8 374C910.167 356.667 946.533 356.667 982.9 374C1019.27 391.333 1055.63 391.333 1092 374C1128.37 356.667 1164.73 356.667 1201.1 374C1237.47 391.333 1273.83 391.333 1310.2 374C1346.57 356.667 1382.93 356.667 1419.3 374C1455.67 391.333 1492.03 391.333 1528.4 374C1564.77 356.667 1601.13 356.667 1637.5 374C1673.87 391.333 1710.23 391.333 1746.6 374C1782.97 356.667 1819.33 356.667 1855.7 374C1892.07 391.333 1928.43 391.333 1964.8 374C2001.17 356.667 2037.53 356.667 2073.9 374C2110.27 391.333 2146.63 391.333 2183 374" stroke="#F5F9FF" stroke-width="2"/>
<path d="M1 389C37.3667 371.667 73.7333 371.667 110.1 389C146.467 406.333 182.833 406.333 219.2 389C255.567 371.667 291.933 371.667 328.3 389C364.667 406.333 401.033 406.333 437.4 389C473.767 371.667 510.133 371.667 546.5 389C582.867 406.333 619.233 406.333 655.6 389C691.967 371.667 728.333 371.667 764.7 389C801.067 406.333 837.433 406.333 873.8 389C910.167 371.667 946.533 371.667 982.9 389C1019.27 406.333 1055.63 406.333 1092 389C1128.37 371.667 1164.73 371.667 1201.1 389C1237.47 406.333 1273.83 406.333 1310.2 389C1346.57 371.667 1382.93 371.667 1419.3 389C1455.67 406.333 1492.03 406.333 1528.4 389C1564.77 371.667 1601.13 371.667 1637.5 389C1673.87 406.333 1710.23 406.333 1746.6 389C1782.97 371.667 1819.33 371.667 1855.7 389C1892.07 406.333 1928.43 406.333 1964.8 389C2001.17 371.667 2037.53 371.667 2073.9 389C2110.27 406.333 2146.63 406.333 2183 389" stroke="#F5F9FF" stroke-width="2"/>
<path d="M1 404C37.3667 386.667 73.7333 386.667 110.1 404C146.467 421.333 182.833 421.333 219.2 404C255.567 386.667 291.933 386.667 328.3 404C364.667 421.333 401.033 421.333 437.4 404C473.767 386.667 510.133 386.667 546.5 404C582.867 421.333 619.233 421.333 655.6 404C691.967 386.667 728.333 386.667 764.7 404C801.067 421.333 837.433 421.333 873.8 404C910.167 386.667 946.533 386.667 982.9 404C1019.27 421.333 1055.63 421.333 1092 404C1128.37 386.667 1164.73 386.667 1201.1 404C1237.47 421.333 1273.83 421.333 1310.2 404C1346.57 386.667 1382.93 386.667 1419.3 404C1455.67 421.333 1492.03 421.333 1528.4 404C1564.77 386.667 1601.13 386.667 1637.5 404C1673.87 421.333 1710.23 421.333 1746.6 404C1782.97 386.667 1819.33 386.667 1855.7 404C1892.07 421.333 1928.43 421.333 1964.8 404C2001.17 386.667 2037.53 386.667 2073.9 404C2110.27 421.333 2146.63 421.333 2183 404" stroke="#F5F9FF" stroke-width="2"/>
<path d="M1 419C37.3667 401.667 73.7333 401.667 110.1 419C146.467 436.333 182.833 436.333 219.2 419C255.567 401.667 291.933 401.667 328.3 419C364.667 436.333 401.033 436.333 437.4 419C473.767 401.667 510.133 401.667 546.5 419C582.867 436.333 619.233 436.333 655.6 419C691.967 401.667 728.333 401.667 764.7 419C801.067 436.333 837.433 436.333 873.8 419C910.167 401.667 946.533 401.667 982.9 419C1019.27 436.333 1055.63 436.333 1092 419C1128.37 401.667 1164.73 401.667 1201.1 419C1237.47 436.333 1273.83 436.333 1310.2 419C1346.57 401.667 1382.93 401.667 1419.3 419C1455.67 436.333 1492.03 436.333 1528.4 419C1564.77 401.667 1601.13 401.667 1637.5 419C1673.87 436.333 1710.23 436.333 1746.6 419C1782.97 401.667 1819.33 401.667 1855.7 419C1892.07 436.333 1928.43 436.333 1964.8 419C2001.17 401.667 2037.53 401.667 2073.9 419C2110.27 436.333 2146.63 436.333 2183 419" stroke="#F5F9FF" stroke-width="2"/>
<path d="M1 434C37.3667 416.667 73.7333 416.667 110.1 434C146.467 451.333 182.833 451.333 219.2 434C255.567 416.667 291.933 416.667 328.3 434C364.667 451.333 401.033 451.333 437.4 434C473.767 416.667 510.133 416.667 546.5 434C582.867 451.333 619.233 451.333 655.6 434C691.967 416.667 728.333 416.667 764.7 434C801.067 451.333 837.433 451.333 873.8 434C910.167 416.667 946.533 416.667 982.9 434C1019.27 451.333 1055.63 451.333 1092 434C1128.37 416.667 1164.73 416.667 1201.1 434C1237.47 451.333 1273.83 451.333 1310.2 434C1346.57 416.667 1382.93 416.667 1419.3 434C1455.67 451.333 1492.03 451.333 1528.4 434C1564.77 416.667 1601.13 416.667 1637.5 434C1673.87 451.333 1710.23 451.333 1746.6 434C1782.97 416.667 1819.33 416.667 1855.7 434C1892.07 451.333 1928.43 451.333 1964.8 434C2001.17 416.667 2037.53 416.667 2073.9 434C2110.27 451.333 2146.63 451.333 2183 434" stroke="#F5F9FF" stroke-width="2"/>
<path d="M1 449C37.3667 431.667 73.7333 431.667 110.1 449C146.467 466.333 182.833 466.333 219.2 449C255.567 431.667 291.933 431.667 328.3 449C364.667 466.333 401.033 466.333 437.4 449C473.767 431.667 510.133 431.667 546.5 449C582.867 466.333 619.233 466.333 655.6 449C691.967 431.667 728.333 431.667 764.7 449C801.067 466.333 837.433 466.333 873.8 449C910.167 431.667 946.533 431.667 982.9 449C1019.27 466.333 1055.63 466.333 1092 449C1128.37 431.667 1164.73 431.667 1201.1 449C1237.47 466.333 1273.83 466.333 1310.2 449C1346.57 431.667 1382.93 431.667 1419.3 449C1455.67 466.333 1492.03 466.333 1528.4 449C1564.77 431.667 1601.13 431.667 1637.5 449C1673.87 466.333 1710.23 466.333 1746.6 449C1782.97 431.667 1819.33 431.667 1855.7 449C1892.07 466.333 1928.43 466.333 1964.8 449C2001.17 431.667 2037.53 431.667 2073.9 449C2110.27 466.333 2146.63 466.333 2183 449" stroke="#F5F9FF" stroke-width="2"/>
<path d="M1 464C37.3667 446.667 73.7333 446.667 110.1 464C146.467 481.333 182.833 481.333 219.2 464C255.567 446.667 291.933 446.667 328.3 464C364.667 481.333 401.033 481.333 437.4 464C473.767 446.667 510.133 446.667 546.5 464C582.867 481.333 619.233 481.333 655.6 464C691.967 446.667 728.333 446.667 764.7 464C801.067 481.333 837.433 481.333 873.8 464C910.167 446.667 946.533 446.667 982.9 464C1019.27 481.333 1055.63 481.333 1092 464C1128.37 446.667 1164.73 446.667 1201.1 464C1237.47 481.333 1273.83 481.333 1310.2 464C1346.57 446.667 1382.93 446.667 1419.3 464C1455.67 481.333 1492.03 481.333 1528.4 464C1564.77 446.667 1601.13 446.667 1637.5 464C1673.87 481.333 1710.23 481.333 1746.6 464C1782.97 446.667 1819.33 446.667 1855.7 464C1892.07 481.333 1928.43 481.333 1964.8 464C2001.17 446.667 2037.53 446.667 2073.9 464C2110.27 481.333 2146.63 481.333 2183 464" stroke="#F5F9FF" stroke-width="2"/>
<path d="M1 479C37.3667 461.667 73.7333 461.667 110.1 479C146.467 496.333 182.833 496.333 219.2 479C255.567 461.667 291.933 461.667 328.3 479C364.667 496.333 401.033 496.333 437.4 479C473.767 461.667 510.133 461.667 546.5 479C582.867 496.333 619.233 496.333 655.6 479C691.967 461.667 728.333 461.667 764.7 479C801.067 496.333 837.433 496.333 873.8 479C910.167 461.667 946.533 461.667 982.9 479C1019.27 496.333 1055.63 496.333 1092 479C1128.37 461.667 1164.73 461.667 1201.1 479C1237.47 496.333 1273.83 496.333 1310.2 479C1346.57 461.667 1382.93 461.667 1419.3 479C1455.67 496.333 1492.03 496.333 1528.4 479C1564.77 461.667 1601.13 461.667 1637.5 479C1673.87 496.333 1710.23 496.333 1746.6 479C1782.97 461.667 1819.33 461.667 1855.7 479C1892.07 496.333 1928.43 496.333 1964.8 479C2001.17 461.667 2037.53 461.667 2073.9 479C2110.27 496.333 2146.63 496.333 2183 479" stroke="#F5F9FF" stroke-width="2"/>
<path d="M1 494C37.3667 476.667 73.7333 476.667 110.1 494C146.467 511.333 182.833 511.333 219.2 494C255.567 476.667 291.933 476.667 328.3 494C364.667 511.333 401.033 511.333 437.4 494C473.767 476.667 510.133 476.667 546.5 494C582.867 511.333 619.233 511.333 655.6 494C691.967 476.667 728.333 476.667 764.7 494C801.067 511.333 837.433 511.333 873.8 494C910.167 476.667 946.533 476.667 982.9 494C1019.27 511.333 1055.63 511.333 1092 494C1128.37 476.667 1164.73 476.667 1201.1 494C1237.47 511.333 1273.83 511.333 1310.2 494C1346.57 476.667 1382.93 476.667 1419.3 494C1455.67 511.333 1492.03 511.333 1528.4 494C1564.77 476.667 1601.13 476.667 1637.5 494C1673.87 511.333 1710.23 511.333 1746.6 494C1782.97 476.667 1819.33 476.667 1855.7 494C1892.07 511.333 1928.43 511.333 1964.8 494C2001.17 476.667 2037.53 476.667 2073.9 494C2110.27 511.333 2146.63 511.333 2183 494" stroke="#F5F9FF" stroke-width="2"/>
<path d="M1 509C37.3667 491.667 73.7333 491.667 110.1 509C146.467 526.333 182.833 526.333 219.2 509C255.567 491.667 291.933 491.667 328.3 509C364.667 526.333 401.033 526.333 437.4 509C473.767 491.667 510.133 491.667 546.5 509C582.867 526.333 619.233 526.333 655.6 509C691.967 491.667 728.333 491.667 764.7 509C801.067 526.333 837.433 526.333 873.8 509C910.167 491.667 946.533 491.667 982.9 509C1019.27 526.333 1055.63 526.333 1092 509C1128.37 491.667 1164.73 491.667 1201.1 509C1237.47 526.333 1273.83 526.333 1310.2 509C1346.57 491.667 1382.93 491.667 1419.3 509C1455.67 526.333 1492.03 526.333 1528.4 509C1564.77 491.667 1601.13 491.667 1637.5 509C1673.87 526.333 1710.23 526.333 1746.6 509C1782.97 491.667 1819.33 491.667 1855.7 509C1892.07 526.333 1928.43 526.333 1964.8 509C2001.17 491.667 2037.53 491.667 2073.9 509C2110.27 526.333 2146.63 526.333 2183 509" stroke="#F5F9FF" stroke-width="2"/>
<path d="M1 524C37.3667 506.667 73.7333 506.667 110.1 524C146.467 541.333 182.833 541.333 219.2 524C255.567 506.667 291.933 506.667 328.3 524C364.667 541.333 401.033 541.333 437.4 524C473.767 506.667 510.133 506.667 546.5 524C582.867 541.333 619.233 541.333 655.6 524C691.967 506.667 728.333 506.667 764.7 524C801.067 541.333 837.433 541.333 873.8 524C910.167 506.667 946.533 506.667 982.9 524C1019.27 541.333 1055.63 541.333 1092 524C1128.37 506.667 1164.73 506.667 1201.1 524C1237.47 541.333 1273.83 541.333 1310.2 524C1346.57 506.667 1382.93 506.667 1419.3 524C1455.67 541.333 1492.03 541.333 1528.4 524C1564.77 506.667 1601.13 506.667 1637.5 524C1673.87 541.333 1710.23 541.333 1746.6 524C1782.97 506.667 1819.33 506.667 1855.7 524C1892.07 541.333 1928.43 541.333 1964.8 524C2001.17 506.667 2037.53 506.667 2073.9 524C2110.27 541.333 2146.63 541.333 2183 524" stroke="#F5F9FF" stroke-width="2"/>
<path d="M1 539C37.3667 521.667 73.7333 521.667 110.1 539C146.467 556.333 182.833 556.333 219.2 539C255.567 521.667 291.933 521.667 328.3 539C364.667 556.333 401.033 556.333 437.4 539C473.767 521.667 510.133 521.667 546.5 539C582.867 556.333 619.233 556.333 655.6 539C691.967 521.667 728.333 521.667 764.7 539C801.067 556.333 837.433 556.333 873.8 539C910.167 521.667 946.533 521.667 982.9 539C1019.27 556.333 1055.63 556.333 1092 539C1128.37 521.667 1164.73 521.667 1201.1 539C1237.47 556.333 1273.83 556.333 1310.2 539C1346.57 521.667 1382.93 521.667 1419.3 539C1455.67 556.333 1492.03 556.333 1528.4 539C1564.77 521.667 1601.13 521.667 1637.5 539C1673.87 556.333 1710.23 556.333 1746.6 539C1782.97 521.667 1819.33 521.667 1855.7 539C1892.07 556.333 1928.43 556.333 1964.8 539C2001.17 521.667 2037.53 521.667 2073.9 539C2110.27 556.333 2146.63 556.333 2183 539" stroke="#F5F9FF" stroke-width="2"/>
<path d="M1 554C37.3667 536.667 73.7333 536.667 110.1 554C146.467 571.333 182.833 571.333 219.2 554C255.567 536.667 291.933 536.667 328.3 554C364.667 571.333 401.033 571.333 437.4 554C473.767 536.667 510.133 536.667 546.5 554C582.867 571.333 619.233 571.333 655.6 554C691.967 536.667 728.333 536.667 764.7 554C801.067 571.333 837.433 571.333 873.8 554C910.167 536.667 946.533 536.667 982.9 554C1019.27 571.333 1055.63 571.333 1092 554C1128.37 536.667 1164.73 536.667 1201.1 554C1237.47 571.333 1273.83 571.333 1310.2 554C1346.57 536.667 1382.93 536.667 1419.3 554C1455.67 571.333 1492.03 571.333 1528.4 554C1564.77 536.667 1601.13 536.667 1637.5 554C1673.87 571.333 1710.23 571.333 1746.6 554C1782.97 536.667 1819.33 536.667 1855.7 554C1892.07 571.333 1928.43 571.333 1964.8 554C2001.17 536.667 2037.53 536.667 2073.9 554C2110.27 571.333 2146.63 571.333 2183 554" stroke="#F5F9FF" stroke-width="2"/>
<path d="M1 569C37.3667 551.667 73.7333 551.667 110.1 569C146.467 586.333 182.833 586.333 219.2 569C255.567 551.667 291.933 551.667 328.3 569C364.667 586.333 401.033 586.333 437.4 569C473.767 551.667 510.133 551.667 546.5 569C582.867 586.333 619.233 586.333 655.6 569C691.967 551.667 728.333 551.667 764.7 569C801.067 586.333 837.433 586.333 873.8 569C910.167 551.667 946.533 551.667 982.9 569C1019.27 586.333 1055.63 586.333 1092 569C1128.37 551.667 1164.73 551.667 1201.1 569C1237.47 586.333 1273.83 586.333 1310.2 569C1346.57 551.667 1382.93 551.667 1419.3 569C1455.67 586.333 1492.03 586.333 1528.4 569C1564.77 551.667 1601.13 551.667 1637.5 569C1673.87 586.333 1710.23 586.333 1746.6 569C1782.97 551.667 1819.33 551.667 1855.7 569C1892.07 586.333 1928.43 586.333 1964.8 569C2001.17 551.667 2037.53 551.667 2073.9 569C2110.27 586.333 2146.63 586.333 2183 569" stroke="#F5F9FF" stroke-width="2"/>
<path d="M1 584C37.3667 566.667 73.7333 566.667 110.1 584C146.467 601.333 182.833 601.333 219.2 584C255.567 566.667 291.933 566.667 328.3 584C364.667 601.333 401.033 601.333 437.4 584C473.767 566.667 510.133 566.667 546.5 584C582.867 601.333 619.233 601.333 655.6 584C691.967 566.667 728.333 566.667 764.7 584C801.067 601.333 837.433 601.333 873.8 584C910.167 566.667 946.533 566.667 982.9 584C1019.27 601.333 1055.63 601.333 1092 584C1128.37 566.667 1164.73 566.667 1201.1 584C1237.47 601.333 1273.83 601.333 1310.2 584C1346.57 566.667 1382.93 566.667 1419.3 584C1455.67 601.333 1492.03 601.333 1528.4 584C1564.77 566.667 1601.13 566.667 1637.5 584C1673.87 601.333 1710.23 601.333 1746.6 584C1782.97 566.667 1819.33 566.667 1855.7 584C1892.07 601.333 1928.43 601.333 1964.8 584C2001.17 566.667 2037.53 566.667 2073.9 584C2110.27 601.333 2146.63 601.333 2183 584" stroke="#F5F9FF" stroke-width="2"/>
<path d="M1 599C37.3667 581.667 73.7333 581.667 110.1 599C146.467 616.333 182.833 616.333 219.2 599C255.567 581.667 291.933 581.667 328.3 599C364.667 616.333 401.033 616.333 437.4 599C473.767 581.667 510.133 581.667 546.5 599C582.867 616.333 619.233 616.333 655.6 599C691.967 581.667 728.333 581.667 764.7 599C801.067 616.333 837.433 616.333 873.8 599C910.167 581.667 946.533 581.667 982.9 599C1019.27 616.333 1055.63 616.333 1092 599C1128.37 581.667 1164.73 581.667 1201.1 599C1237.47 616.333 1273.83 616.333 1310.2 599C1346.57 581.667 1382.93 581.667 1419.3 599C1455.67 616.333 1492.03 616.333 1528.4 599C1564.77 581.667 1601.13 581.667 1637.5 599C1673.87 616.333 1710.23 616.333 1746.6 599C1782.97 581.667 1819.33 581.667 1855.7 599C1892.07 616.333 1928.43 616.333 1964.8 599C2001.17 581.667 2037.53 581.667 2073.9 599C2110.27 616.333 2146.63 616.333 2183 599" stroke="#F5F9FF" stroke-width="2"/>
<path d="M1 614C37.3667 596.667 73.7333 596.667 110.1 614C146.467 631.333 182.833 631.333 219.2 614C255.567 596.667 291.933 596.667 328.3 614C364.667 631.333 401.033 631.333 437.4 614C473.767 596.667 510.133 596.667 546.5 614C582.867 631.333 619.233 631.333 655.6 614C691.967 596.667 728.333 596.667 764.7 614C801.067 631.333 837.433 631.333 873.8 614C910.167 596.667 946.533 596.667 982.9 614C1019.27 631.333 1055.63 631.333 1092 614C1128.37 596.667 1164.73 596.667 1201.1 614C1237.47 631.333 1273.83 631.333 1310.2 614C1346.57 596.667 1382.93 596.667 1419.3 614C1455.67 631.333 1492.03 631.333 1528.4 614C1564.77 596.667 1601.13 596.667 1637.5 614C1673.87 631.333 1710.23 631.333 1746.6 614C1782.97 596.667 1819.33 596.667 1855.7 614C1892.07 631.333 1928.43 631.333 1964.8 614C2001.17 596.667 2037.53 596.667 2073.9 614C2110.27 631.333 2146.63 631.333 2183 614" stroke="#F5F9FF" stroke-width="2"/>
<path d="M1 629C37.3667 611.667 73.7333 611.667 110.1 629C146.467 646.333 182.833 646.333 219.2 629C255.567 611.667 291.933 611.667 328.3 629C364.667 646.333 401.033 646.333 437.4 629C473.767 611.667 510.133 611.667 546.5 629C582.867 646.333 619.233 646.333 655.6 629C691.967 611.667 728.333 611.667 764.7 629C801.067 646.333 837.433 646.333 873.8 629C910.167 611.667 946.533 611.667 982.9 629C1019.27 646.333 1055.63 646.333 1092 629C1128.37 611.667 1164.73 611.667 1201.1 629C1237.47 646.333 1273.83 646.333 1310.2 629C1346.57 611.667 1382.93 611.667 1419.3 629C1455.67 646.333 1492.03 646.333 1528.4 629C1564.77 611.667 1601.13 611.667 1637.5 629C1673.87 646.333 1710.23 646.333 1746.6 629C1782.97 611.667 1819.33 611.667 1855.7 629C1892.07 646.333 1928.43 646.333 1964.8 629C2001.17 611.667 2037.53 611.667 2073.9 629C2110.27 646.333 2146.63 646.333 2183 629" stroke="#F5F9FF" stroke-width="2"/>
<path d="M1 644C37.3667 626.667 73.7333 626.667 110.1 644C146.467 661.333 182.833 661.333 219.2 644C255.567 626.667 291.933 626.667 328.3 644C364.667 661.333 401.033 661.333 437.4 644C473.767 626.667 510.133 626.667 546.5 644C582.867 661.333 619.233 661.333 655.6 644C691.967 626.667 728.333 626.667 764.7 644C801.067 661.333 837.433 661.333 873.8 644C910.167 626.667 946.533 626.667 982.9 644C1019.27 661.333 1055.63 661.333 1092 644C1128.37 626.667 1164.73 626.667 1201.1 644C1237.47 661.333 1273.83 661.333 1310.2 644C1346.57 626.667 1382.93 626.667 1419.3 644C1455.67 661.333 1492.03 661.333 1528.4 644C1564.77 626.667 1601.13 626.667 1637.5 644C1673.87 661.333 1710.23 661.333 1746.6 644C1782.97 626.667 1819.33 626.667 1855.7 644C1892.07 661.333 1928.43 661.333 1964.8 644C2001.17 626.667 2037.53 626.667 2073.9 644C2110.27 661.333 2146.63 661.333 2183 644" stroke="#F5F9FF" stroke-width="2"/>
<path d="M1 659C37.3667 641.667 73.7333 641.667 110.1 659C146.467 676.333 182.833 676.333 219.2 659C255.567 641.667 291.933 641.667 328.3 659C364.667 676.333 401.033 676.333 437.4 659C473.767 641.667 510.133 641.667 546.5 659C582.867 676.333 619.233 676.333 655.6 659C691.967 641.667 728.333 641.667 764.7 659C801.067 676.333 837.433 676.333 873.8 659C910.167 641.667 946.533 641.667 982.9 659C1019.27 676.333 1055.63 676.333 1092 659C1128.37 641.667 1164.73 641.667 1201.1 659C1237.47 676.333 1273.83 676.333 1310.2 659C1346.57 641.667 1382.93 641.667 1419.3 659C1455.67 676.333 1492.03 676.333 1528.4 659C1564.77 641.667 1601.13 641.667 1637.5 659C1673.87 676.333 1710.23 676.333 1746.6 659C1782.97 641.667 1819.33 641.667 1855.7 659C1892.07 676.333 1928.43 676.333 1964.8 659C2001.17 641.667 2037.53 641.667 2073.9 659C2110.27 676.333 2146.63 676.333 2183 659" stroke="#F5F9FF" stroke-width="2"/>
</svg>
